<svg width="20" height="20" viewBox="0 0 20 20" fill="none" xmlns="http://www.w3.org/2000/svg">
<path fill-rule="evenodd" clip-rule="evenodd" d="M4.73289 3.25077C4.71419 3.25011 4.69079 3.25 4.60643 3.25L4.57584 3.25013C4.5705 3.25022 4.56226 3.25044 4.54458 3.25122C4.25857 3.26385 3.9464 3.41639 3.7021 3.68569C3.45779 3.95499 3.33629 4.2805 3.35149 4.56638L3.35229 4.58351L3.35246 4.58791C3.51937 6.24676 3.88861 7.74737 4.44032 9.08092L5.25915 8.39635C5.65647 8.06417 5.91762 7.845 6.10651 7.65698C6.28585 7.47847 6.36018 7.36585 6.40314 7.26682C6.43452 7.19448 6.45899 7.11933 6.47621 7.04238C6.49979 6.93703 6.50601 6.80224 6.46614 6.55237C6.42414 6.28918 6.34209 5.95827 6.21648 5.45585L5.92177 4.27699C5.90131 4.19514 5.89552 4.17247 5.89035 4.15449C5.74079 3.63449 5.27364 3.26975 4.73289 3.25077ZM5.11521 10.4718L6.22126 9.54715L6.24487 9.52741L6.24493 9.52736L6.24493 9.52736C6.61229 9.22025 6.92414 8.95955 7.16471 8.7201C7.41999 8.466 7.63367 8.19934 7.77924 7.86376C7.84828 7.70462 7.9021 7.53929 7.93999 7.37001C8.01989 7.01305 8.00416 6.6717 7.9474 6.31601C7.89391 5.9808 7.79531 5.58645 7.67916 5.1219L7.6717 5.09204L7.37698 3.91319L7.37406 3.90151C7.35789 3.8368 7.34533 3.78655 7.33191 3.73988C7.00288 2.59587 5.97514 1.79344 4.78549 1.75169C4.73696 1.74999 4.68519 1.74999 4.61851 1.75L4.60643 1.75C4.56666 1.75 4.53769 1.75006 4.47841 1.75268C3.72523 1.78594 3.05531 2.16616 2.59113 2.67784C2.14404 3.17068 1.83685 3.84164 1.85061 4.5631L1.8497 4.57873C1.84955 4.58906 1.8496 4.60599 1.84973 4.61259L1.85026 4.62844L1.85109 4.64357L1.85193 4.65517L1.85257 4.66266L1.85283 4.66558L1.85332 4.67069L1.85381 4.67568C2.06973 6.8887 2.62291 8.88365 3.49711 10.6235C4.79636 13.2093 6.7913 15.2042 9.37711 16.5035C11.117 17.3777 13.1119 17.9309 15.3249 18.1468L15.3299 18.1473L15.335 18.1478L15.3379 18.148L15.3454 18.1487L15.357 18.1495L15.3722 18.1503L15.388 18.1509C15.3946 18.151 15.4116 18.1511 15.4219 18.1509L15.4375 18.15C16.159 18.1638 16.8299 17.8566 17.3228 17.4095C17.8344 16.9453 18.2147 16.2754 18.2479 15.5222C18.2505 15.4629 18.2506 15.4339 18.2506 15.3942V15.3821C18.2506 15.3154 18.2506 15.2636 18.2489 15.2151C18.2072 14.0255 17.4047 12.9977 16.2607 12.6687C16.2141 12.6553 16.164 12.6428 16.0994 12.6266L16.0993 12.6266L16.0992 12.6266L16.0874 12.6236L14.9086 12.3289L14.8787 12.3214C14.4141 12.2053 14.0198 12.1067 13.6846 12.0532C13.3289 11.9964 12.9876 11.9807 12.6306 12.0606C12.4613 12.0985 12.296 12.1523 12.1368 12.2214C11.8013 12.3669 11.5346 12.5806 11.2805 12.8359C11.041 13.0765 10.7803 13.3884 10.4732 13.7558L10.4535 13.7793L9.52876 14.8854C7.65574 13.8302 6.17042 12.3449 5.11521 10.4718ZM10.9197 15.5603C12.2532 16.112 13.7538 16.4812 15.4127 16.6481L15.4171 16.6483L15.4342 16.6491C15.7201 16.6643 16.0456 16.5428 16.3149 16.2985C16.5842 16.0542 16.7368 15.742 16.7494 15.456C16.7502 15.4383 16.7504 15.4301 16.7505 15.4248L16.7506 15.3942C16.7506 15.3098 16.7505 15.2864 16.7498 15.2677C16.7309 14.727 16.3661 14.2598 15.8461 14.1103C15.8281 14.1051 15.8055 14.0993 15.7236 14.0788L14.5448 13.7841C14.0423 13.6585 13.7114 13.5765 13.4482 13.5345C13.1984 13.4946 13.0636 13.5008 12.9582 13.5244C12.8813 13.5416 12.8061 13.5661 12.7338 13.5975C12.6348 13.6404 12.5221 13.7148 12.3436 13.8941C12.1556 14.083 11.9364 14.3441 11.6043 14.7415L10.9197 15.5603ZM15.5773 18.1215L15.5947 18.1165C15.6098 18.1121 15.6283 18.106 15.6492 18.098C15.6699 18.0901 15.6961 18.079 15.7257 18.0637C15.7376 18.0574 15.7624 18.0433 15.7753 18.0355C15.7895 18.0265 15.8191 18.0063 15.8343 17.9951C15.8511 17.9819 15.8854 17.9525 15.9028 17.9362C15.9218 17.9171 15.9597 17.8745 15.9783 17.8509C15.9979 17.8238 16.0351 17.7642 16.0522 17.7317C16.069 17.6956 16.0974 17.6187 16.1087 17.578C16.118 17.5352 16.129 17.4481 16.1307 17.4041C16.1298 17.3607 16.1208 17.2766 16.113 17.236C16.0898 17.1311 16.048 17.048 16.0088 16.988C15.9974 16.9711 15.9768 16.9433 15.9614 16.9237C16.1205 17.4577 15.7542 18.0105 15.5773 18.1215ZM15.8284 16.7961L15.8125 16.7846C15.7889 16.768 15.7677 16.7551 15.7507 16.7454C15.7335 16.7357 15.7181 16.7278 15.7053 16.7217C15.6925 16.7156 15.6809 16.7105 15.6712 16.7064L15.6683 16.7052C15.7111 16.7263 15.7696 16.7582 15.8284 16.7961ZM1.87909 4.42334C1.99009 4.2464 2.54281 3.88016 3.07679 4.03913C3.05718 4.02377 3.02934 4.0031 3.01246 3.99168C2.95244 3.95254 2.86931 3.91068 2.76438 3.88753C2.72379 3.87975 2.63961 3.87083 2.59625 3.86996C2.55225 3.87163 2.46513 3.88268 2.42232 3.89197C2.3817 3.90327 2.30481 3.93168 2.26867 3.94849C2.23622 3.96564 2.17668 4.00277 2.14955 4.02241C2.12599 4.04104 2.08343 4.07889 2.06435 4.09789C2.04799 4.1153 2.01861 4.14964 2.00548 4.16643C1.99425 4.18162 1.97405 4.21113 1.96501 4.22539C1.95723 4.23825 1.94319 4.26308 1.93687 4.27501C1.92159 4.30453 1.91048 4.33079 1.90258 4.3514C1.89457 4.3723 1.88853 4.39084 1.88405 4.4059L1.87909 4.42334ZM3.20441 4.17208C3.24236 4.23095 3.27434 4.28944 3.29544 4.3323L3.29424 4.32943C3.29013 4.31964 3.28503 4.30808 3.27887 4.29523C3.27275 4.2825 3.2649 4.26707 3.25515 4.24987C3.24551 4.23287 3.23259 4.21163 3.21598 4.18806L3.20441 4.17208ZM10.9172 5.83329C10.9172 5.41908 11.2529 5.08329 11.6672 5.08329C12.5733 5.08329 13.3603 5.64485 13.8814 6.20152C14.1752 6.5154 14.4246 6.86885 14.6041 7.21823C14.7761 7.55287 14.9172 7.94814 14.9172 8.33329C14.9172 8.7475 14.5814 9.08329 14.1672 9.08329C13.7529 9.08329 13.4172 8.7475 13.4172 8.33329C13.4172 8.28653 13.3903 8.13796 13.27 7.90384C13.1573 7.68446 12.99 7.44425 12.7863 7.22656C12.3825 6.79519 11.9653 6.58329 11.6672 6.58329C11.2529 6.58329 10.9172 6.2475 10.9172 5.83329ZM11.6672 2.58329C11.2529 2.58329 10.9172 2.91908 10.9172 3.33329C10.9172 3.7475 11.2529 4.08329 11.6672 4.08329C14.0144 4.08329 15.9172 5.98608 15.9172 8.33329C15.9172 8.7475 16.2529 9.08329 16.6672 9.08329C17.0814 9.08329 17.4172 8.7475 17.4172 8.33329C17.4172 5.15765 14.8428 2.58329 11.6672 2.58329Z" fill="#081972"/>
</svg>
