<svg width="20" height="20" viewBox="0 0 20 20" fill="none" xmlns="http://www.w3.org/2000/svg">
<path fill-rule="evenodd" clip-rule="evenodd" d="M8.33268 2.5835L8.29589 2.5835C7.08092 2.58349 6.11814 2.58348 5.34511 2.65355C4.55399 2.72525 3.88829 2.87504 3.29102 3.21988C2.56892 3.63678 1.9693 4.23641 1.5524 4.9585C1.20756 5.55577 1.05777 6.22147 0.986065 7.01259C0.916003 7.78562 0.916009 8.7484 0.916016 9.96337L0.916016 10.0002L0.916016 10.037C0.916009 11.2519 0.916003 12.2147 0.986065 12.9877C1.05777 13.7789 1.20756 14.4446 1.5524 15.0418C1.9693 15.7639 2.56892 16.3635 3.29102 16.7804C3.88829 17.1253 4.55399 17.2751 5.34511 17.3468C6.11814 17.4168 7.08093 17.4168 8.29592 17.4168H8.33269H11.666H11.7028C12.9178 17.4168 13.8806 17.4168 14.6536 17.3468C15.4447 17.2751 16.1104 17.1253 16.7077 16.7804C17.4298 16.3635 18.0294 15.7639 18.4463 15.0418C18.7911 14.4446 18.9409 13.7789 19.0126 12.9877C19.0827 12.2147 19.0827 11.2519 19.0827 10.037V10.0002V9.96335C19.0827 8.74838 19.0827 7.78561 19.0126 7.01259C18.9409 6.22147 18.7911 5.55577 18.4463 4.9585C18.0294 4.23641 17.4298 3.63678 16.7077 3.21988C16.1104 2.87504 15.4447 2.72525 14.6536 2.65355C13.8806 2.58348 12.9178 2.58349 11.7028 2.5835L11.666 2.5835H8.33268ZM4.04102 4.51891C4.37194 4.32785 4.79342 4.20969 5.48051 4.14742C6.1779 4.08421 7.07273 4.0835 8.33268 4.0835H11.666C12.926 4.0835 13.8208 4.08421 14.5182 4.14742C15.2053 4.20969 15.6268 4.32785 15.9577 4.51891C16.4517 4.80416 16.862 5.21443 17.1473 5.7085C17.3383 6.03942 17.4565 6.4609 17.5188 7.14799C17.582 7.84538 17.5827 8.74021 17.5827 10.0002C17.5827 11.2601 17.582 12.1549 17.5188 12.8523C17.4565 13.5394 17.3383 13.9609 17.1473 14.2918C16.862 14.7859 16.4517 15.1962 15.9577 15.4814C15.6268 15.6725 15.2053 15.7906 14.5182 15.8529C13.8208 15.9161 12.926 15.9168 11.666 15.9168H8.33269C7.07273 15.9168 6.1779 15.9161 5.48051 15.8529C4.79342 15.7906 4.37194 15.6725 4.04102 15.4814C3.54695 15.1962 3.13668 14.7859 2.85143 14.2918C2.66037 13.9609 2.54221 13.5394 2.47994 12.8523C2.41673 12.1549 2.41602 11.2601 2.41602 10.0002C2.41602 8.74021 2.41673 7.84538 2.47994 7.14799C2.54221 6.4609 2.66037 6.03942 2.85143 5.7085C3.13668 5.21443 3.54695 4.80416 4.04102 4.51891ZM5.41537 6.04279C5.07073 5.81303 4.60508 5.90616 4.37531 6.2508C4.14555 6.59545 4.23868 7.0611 4.58332 7.29087L9.58332 10.6242C9.83525 10.7922 10.1634 10.7922 10.4154 10.6242L15.4154 7.29087C15.76 7.0611 15.8532 6.59545 15.6234 6.2508C15.3936 5.90616 14.928 5.81303 14.5833 6.04279L9.99935 9.09877L5.41537 6.04279Z" fill="#081972"/>
</svg>
