<svg width="20" height="20" viewBox="0 0 20 20" fill="none" xmlns="http://www.w3.org/2000/svg">
<path fill-rule="evenodd" clip-rule="evenodd" d="M12.709 3C12.2948 3 11.959 3.33579 11.959 3.75C11.959 4.16421 12.2948 4.5 12.709 4.5H14.7344L11.6809 7.5535C10.6527 6.58999 9.27026 6 7.75 6C4.57436 6 2 8.57436 2 11.75C2 14.9256 4.57436 17.5 7.75 17.5C10.9256 17.5 13.5 14.9256 13.5 11.75C13.5 10.6375 13.1841 9.5988 12.637 8.71872L15.7951 5.56066V7.58606C15.7951 8.00027 16.1309 8.33606 16.5451 8.33606C16.9593 8.33606 17.2951 8.00027 17.2951 7.58606V3.75C17.2951 3.33579 16.9593 3 16.5451 3H12.709ZM3.5 11.75C3.5 9.40279 5.40279 7.5 7.75 7.5C10.0972 7.5 12 9.40279 12 11.75C12 14.0972 10.0972 16 7.75 16C5.40279 16 3.5 14.0972 3.5 11.75Z" fill="#081972"/>
</svg>
