<svg width="20" height="20" viewBox="0 0 20 20" fill="none" xmlns="http://www.w3.org/2000/svg">
<path fill-rule="evenodd" clip-rule="evenodd" d="M4.08398 8.45666C4.08398 6.39202 4.83717 4.90098 5.92068 3.92002C7.01696 2.9275 8.49755 2.4165 10.0006 2.4165C11.5037 2.41651 12.9843 2.92752 14.0806 3.92004C15.1641 4.901 15.9173 6.39204 15.9173 8.45666C15.9173 10.8403 14.6435 12.9697 13.1725 14.6239C12.5059 15.3735 12.0904 15.8328 11.6416 16.1304C11.2397 16.397 10.7806 16.5498 10.0008 16.5498C9.22102 16.5499 8.7619 16.397 8.35999 16.1305C7.91125 15.8329 7.49571 15.3736 6.82903 14.624C5.35792 12.9698 4.08398 10.8403 4.08398 8.45666ZM17.4173 8.45666C17.4173 5.99452 16.5038 4.09049 15.0873 2.80806C13.6836 1.5372 11.8309 0.916508 10.0007 0.916504C8.17042 0.916499 6.31767 1.53718 4.91395 2.80804C3.49746 4.09047 2.58398 5.9945 2.58398 8.45666C2.58398 11.3738 4.13189 13.8484 5.70817 15.6208L5.7558 15.6744C6.36077 16.3548 6.90172 16.9632 7.53095 17.3805C8.22347 17.8398 8.98496 18.0499 10.0009 18.0498C11.0167 18.0498 11.7782 17.8398 12.4707 17.3805C13.0999 16.9631 13.6409 16.3547 14.2458 15.6742L14.2934 15.6207C15.8696 13.8483 17.4173 11.3737 17.4173 8.45666ZM8.25065 8.3332C8.25065 7.3667 9.03415 6.5832 10.0007 6.5832C10.9671 6.5832 11.7507 7.3667 11.7507 8.3332C11.7507 9.29969 10.9671 10.0832 10.0007 10.0832C9.03415 10.0832 8.25065 9.29969 8.25065 8.3332ZM10.0007 5.0832C8.20573 5.0832 6.75065 6.53827 6.75065 8.3332C6.75065 10.1281 8.20573 11.5832 10.0007 11.5832C11.7956 11.5832 13.2507 10.1281 13.2507 8.3332C13.2507 6.53827 11.7956 5.0832 10.0007 5.0832Z" fill="#081972"/>
</svg>
