<svg width="20" height="20" viewBox="0 0 20 20" fill="none" xmlns="http://www.w3.org/2000/svg">
<path fill-rule="evenodd" clip-rule="evenodd" d="M7.54315 2.23445C7.54315 1.85741 7.23749 1.55176 6.86045 1.55176C6.48341 1.55176 6.17776 1.85741 6.17776 2.23445V3.11781C5.98188 3.13786 5.80382 3.16732 5.63507 3.21056C4.10603 3.60245 2.91204 4.79643 2.52016 6.32547C2.38448 6.85489 2.38459 7.47601 2.38478 8.45117L2.38479 8.56202V10.5848L2.38479 10.6293C2.38478 12.0878 2.38477 13.2432 2.49282 14.1573C2.60375 15.0958 2.83663 15.8683 3.36623 16.5136C3.5459 16.7326 3.74665 16.9333 3.96557 17.113C4.6109 17.6426 5.38343 17.8755 6.32188 17.9864C7.23596 18.0944 8.39138 18.0944 9.84981 18.0944H9.84983H9.84985H9.84987H9.89441H9.93895H9.93897H9.93898H9.939C11.3974 18.0944 12.5529 18.0944 13.4669 17.9864C14.4054 17.8755 15.1779 17.6426 15.8232 17.113C16.0422 16.9333 16.2429 16.7326 16.4226 16.5136C16.9522 15.8683 17.1851 15.0958 17.296 14.1573C17.404 13.2432 17.404 12.0878 17.404 10.6293V10.5848V10.5403C17.404 9.08181 17.404 7.92637 17.296 7.01228C17.1851 6.07383 16.9522 5.3013 16.4226 4.65598C16.2429 4.43705 16.0422 4.2363 15.8232 4.05663C15.2114 3.55448 14.4851 3.31909 13.6115 3.20148V2.23445C13.6115 1.85741 13.3059 1.55176 12.9288 1.55176C12.5518 1.55176 12.2461 1.85741 12.2461 2.23445V3.09838C11.5769 3.07518 10.8122 3.07519 9.93893 3.0752H9.93893L9.89441 3.0752H7.87162L7.76077 3.07518L7.54315 3.0752V2.23445ZM12.2461 4.51009V4.4645C11.6006 4.44101 10.8316 4.44058 9.89441 4.44058H7.87162C7.75491 4.44058 7.64564 4.44064 7.54315 4.44084V4.51009C7.54315 4.88713 7.23749 5.19278 6.86045 5.19278C6.48341 5.19278 6.17776 4.88713 6.17776 4.51009V4.49249C6.10406 4.50355 6.03744 4.51696 5.97405 4.5332C4.92786 4.80133 4.11093 5.61827 3.8428 6.66446C3.75557 7.00482 3.75018 7.43844 3.75018 8.56202V10.5848C3.75018 12.0978 3.75129 13.1725 3.84877 13.9971C3.94446 14.8066 4.12482 15.2857 4.42169 15.6475C4.54462 15.7972 4.68197 15.9346 4.83176 16.0575C5.1935 16.3544 5.67261 16.5348 6.48216 16.6305C7.30677 16.7279 8.38146 16.729 9.89441 16.729C11.4074 16.729 12.482 16.7279 13.3067 16.6305C14.1162 16.5348 14.5953 16.3544 14.9571 16.0575C15.1068 15.9346 15.2442 15.7972 15.3671 15.6475C15.664 15.2857 15.8444 14.8066 15.94 13.9971C16.0375 13.1724 16.0386 12.0978 16.0386 10.5848C16.0386 9.07186 16.0375 7.99717 15.94 7.17256C15.8444 6.36302 15.664 5.88391 15.3671 5.52217C15.2442 5.37237 15.1068 5.23502 14.9571 5.11209C14.6426 4.85405 14.2395 4.68404 13.6079 4.58114C13.5723 4.92479 13.2819 5.19278 12.9288 5.19278C12.5518 5.19278 12.2461 4.88713 12.2461 4.51009ZM6.10069 6.86426C5.72365 6.86426 5.418 7.16991 5.418 7.54695C5.418 7.92399 5.72365 8.22964 6.10069 8.22964H13.6862C14.0632 8.22964 14.3688 7.92399 14.3688 7.54695C14.3688 7.16991 14.0632 6.86426 13.6862 6.86426H6.10069Z" fill="#081972"/>
</svg>
