<svg width="21" height="20" viewBox="0 0 21 20" fill="none" xmlns="http://www.w3.org/2000/svg">
<path fill-rule="evenodd" clip-rule="evenodd" d="M3.31055 9.99984C3.31055 9.74476 3.41507 9.29318 3.7075 8.7317C3.99294 8.18367 4.43472 7.57577 5.04842 7.00927C6.26685 5.88457 8.16953 4.9165 10.8939 4.9165C13.6182 4.9165 15.5209 5.88457 16.7393 7.00927C17.353 7.57577 17.7948 8.18367 18.0803 8.7317C18.3727 9.29318 18.4772 9.74476 18.4772 9.99984C18.4772 10.2549 18.3727 10.7065 18.0803 11.268C17.7948 11.816 17.353 12.4239 16.7393 12.9904C15.5209 14.1151 13.6182 15.0832 10.8939 15.0832C8.16953 15.0832 6.26685 14.1151 5.04842 12.9904C4.43472 12.4239 3.99294 11.816 3.7075 11.268C3.41507 10.7065 3.31055 10.2549 3.31055 9.99984ZM10.8939 3.4165C7.7849 3.4165 5.52091 4.53177 4.031 5.90707C3.29054 6.59057 2.74274 7.33684 2.37713 8.0388C2.01853 8.72733 1.81055 9.42158 1.81055 9.99984C1.81055 10.5781 2.01853 11.2723 2.37713 11.9609C2.74274 12.6628 3.29054 13.4091 4.031 14.0926C5.52091 15.4679 7.7849 16.5832 10.8939 16.5832C14.0029 16.5832 16.2668 15.4679 17.7568 14.0926C18.4972 13.4091 19.045 12.6628 19.4106 11.9609C19.7692 11.2723 19.9772 10.5781 19.9772 9.99984C19.9772 9.42158 19.7692 8.72733 19.4106 8.0388C19.045 7.33684 18.4972 6.59057 17.7568 5.90707C16.2668 4.53177 14.0029 3.4165 10.8939 3.4165ZM9.1438 9.99986C9.1438 9.03336 9.9273 8.24986 10.8938 8.24986C11.8603 8.24986 12.6438 9.03336 12.6438 9.99986C12.6438 10.9664 11.8603 11.7499 10.8938 11.7499C9.9273 11.7499 9.1438 10.9664 9.1438 9.99986ZM10.8938 6.74986C9.09887 6.74986 7.6438 8.20493 7.6438 9.99986C7.6438 11.7948 9.09887 13.2499 10.8938 13.2499C12.6887 13.2499 14.1438 11.7948 14.1438 9.99986C14.1438 8.20493 12.6887 6.74986 10.8938 6.74986Z" fill="#4D84E7"/>
</svg>
