<svg width="21" height="20" viewBox="0 0 21 20" fill="none" xmlns="http://www.w3.org/2000/svg">
<path fill-rule="evenodd" clip-rule="evenodd" d="M3.92413 1.96967C3.63124 1.67678 3.15636 1.67678 2.86347 1.96967C2.57058 2.26256 2.57058 2.73744 2.86347 3.03033L4.97982 5.14668C4.00611 5.82254 3.26951 6.62109 2.7539 7.40076C2.15197 8.31095 1.81055 9.25949 1.81055 9.99998C1.81055 10.5782 2.01853 11.2725 2.37713 11.961C2.74274 12.663 3.29054 13.4092 4.031 14.0927C5.52091 15.468 7.7849 16.5833 10.8939 16.5833C12.69 16.5833 14.2081 16.211 15.46 15.6268L17.8635 18.0303C18.1564 18.3232 18.6312 18.3232 18.9241 18.0303C19.217 17.7374 19.217 17.2626 18.9241 16.9697L3.92413 1.96967ZM14.3169 14.4838L12.5998 12.7666C12.1039 13.0729 11.519 13.25 10.8938 13.25C9.09887 13.25 7.6438 11.7949 7.6438 10C7.6438 9.37478 7.8209 8.78992 8.12717 8.29403L6.06119 6.22806C5.13584 6.8217 4.45799 7.54327 4.00505 8.22817C3.49607 8.99782 3.31055 9.65835 3.31055 9.99998C3.31055 10.2551 3.41507 10.7066 3.7075 11.2681C3.99294 11.8161 4.43472 12.424 5.04842 12.9905C6.26685 14.1152 8.16953 15.0833 10.8939 15.0833C12.2294 15.0833 13.3646 14.8507 14.3169 14.4838ZM9.24491 9.41177C9.1794 9.59547 9.1438 9.79339 9.1438 10C9.1438 10.9665 9.9273 11.75 10.8938 11.75C11.1004 11.75 11.2983 11.7144 11.482 11.6489L9.24491 9.41177ZM10.8939 4.91665C10.0361 4.91665 9.2621 5.01261 8.56719 5.17765C8.16418 5.27337 7.75989 5.02426 7.66418 4.62126C7.56846 4.21826 7.81757 3.81397 8.22057 3.71825C9.03289 3.52532 9.9234 3.41665 10.8939 3.41665C14.0029 3.41665 16.2668 4.53191 17.7568 5.90721C18.4972 6.59072 19.045 7.33698 19.4106 8.03895C19.7692 8.72747 19.9772 9.42172 19.9772 9.99998C19.9772 11.0532 19.2845 12.5785 17.9948 13.8644C17.7014 14.1569 17.2266 14.1562 16.9341 13.8629C16.6416 13.5695 16.6423 13.0947 16.9357 12.8022C18.0539 11.6873 18.4772 10.5216 18.4772 9.99998C18.4772 9.7449 18.3727 9.29332 18.0803 8.73185C17.7948 8.18381 17.353 7.57591 16.7393 7.00942C15.5209 5.88472 13.6182 4.91665 10.8939 4.91665Z" fill="#4D84E7"/>
</svg>
