<svg width="25" height="25" viewBox="0 0 25 25" fill="none" xmlns="http://www.w3.org/2000/svg">
<g clip-path="url(#clip0_691_23131)">
<path d="M2.38477 7.34076C3.11133 5.82669 4.13789 4.54701 5.43164 3.48294C7.18477 2.03451 9.1957 1.16263 11.4504 0.895445C14.0988 0.581382 16.5879 1.08294 18.8895 2.46107C19.4613 2.80326 19.9957 3.19232 20.5066 3.61419C20.6332 3.71732 20.6191 3.77826 20.5113 3.88138C19.466 4.92201 18.4207 5.96263 17.3848 7.01263C17.2629 7.13451 17.1973 7.12513 17.066 7.02669C14.0285 4.68763 9.59883 5.32044 7.33477 8.41419C6.93633 8.95794 6.61289 9.54388 6.38789 10.1814C6.36914 10.2376 6.33164 10.2892 6.30352 10.3454C5.69883 9.88607 5.08945 9.42669 4.48945 8.96263C3.78633 8.42357 3.0832 7.88451 2.38477 7.34076Z" fill="#E94335"/>
<path d="M6.30234 14.7441C6.50391 15.1895 6.67266 15.6535 6.92578 16.0707C7.98984 17.8145 9.50859 18.9348 11.5102 19.3332C13.3148 19.6941 15.0492 19.4504 16.6664 18.5457C16.7227 18.5176 16.7789 18.4895 16.8305 18.4613C16.8586 18.4895 16.882 18.5223 16.9102 18.5457C18.1195 19.4832 19.3336 20.4207 20.543 21.3582C19.9617 21.9348 19.3008 22.3988 18.5977 22.802C16.5586 23.9645 14.3508 24.4332 12.0258 24.2551C9.12891 24.0301 6.63047 22.8863 4.56797 20.8238C3.66328 19.9191 2.91797 18.8973 2.37891 17.7301C2.88047 17.3457 3.38203 16.966 3.88359 16.5816C4.68984 15.9676 5.49609 15.3582 6.30234 14.7441Z" fill="#34A853"/>
<path d="M20.5472 21.3547C19.3378 20.4172 18.1238 19.4797 16.9144 18.5422C16.8863 18.5188 16.8581 18.4859 16.8347 18.4578C17.2519 18.1344 17.6784 17.8203 18.0206 17.4078C18.5925 16.7234 18.9722 15.95 19.1691 15.0828C19.1925 14.975 19.1738 14.9375 19.0659 14.9422C19.0097 14.9469 18.9581 14.9422 18.9019 14.9422C16.9894 14.9422 15.0722 14.9375 13.1597 14.9469C12.9487 14.9469 12.9019 14.8906 12.9066 14.6891C12.9159 13.3297 12.9159 11.9703 12.9066 10.6109C12.9066 10.4375 12.9534 10.3906 13.1269 10.3906C16.6331 10.3953 20.1394 10.3953 23.6503 10.3906C23.8003 10.3906 23.8613 10.4281 23.8988 10.5875C24.1847 11.8766 24.166 13.1703 23.9925 14.4734C23.8519 15.5141 23.5988 16.5219 23.2097 17.4969C22.6331 18.9359 21.7847 20.1922 20.6691 21.2703C20.6269 21.3031 20.5847 21.3266 20.5472 21.3547Z" fill="#4285F3"/>
<path d="M6.30184 14.7406C5.49559 15.3547 4.68934 15.9641 3.88309 16.5781C3.38153 16.9578 2.87997 17.3422 2.37841 17.7266C1.98934 17.0047 1.73622 16.2406 1.52997 15.4531C1.13622 13.9297 1.07528 12.3828 1.29091 10.8312C1.45966 9.6125 1.81122 8.44062 2.37841 7.34375C3.08153 7.88281 3.77997 8.42656 4.48309 8.96563C5.08778 9.42969 5.69247 9.88906 6.29716 10.3484C6.19403 10.85 6.04872 11.3422 6.00184 11.8578C5.91747 12.7953 6.00653 13.7094 6.27372 14.6094C6.29247 14.6469 6.29716 14.6937 6.30184 14.7406Z" fill="#FABB06"/>
</g>
<defs>
<clipPath id="clip0_691_23131">
<rect width="24" height="24" fill="white" transform="translate(0.394531 0.5)"/>
</clipPath>
</defs>
</svg>
