<svg width="22" height="21" viewBox="0 0 22 21"  xmlns="http://www.w3.org/2000/svg">
<path fill-rule="evenodd" clip-rule="evenodd" d="M7.8369 4.25026C8.17539 2.81678 9.46311 1.75 11 1.75C12.5369 1.75 13.8246 2.81678 14.1631 4.25026C13.964 4.25 13.7593 4.25 13.5489 4.25L13.5 4.25H8.5L8.45109 4.25C8.24067 4.25 8.03599 4.25 7.8369 4.25026ZM6.30661 4.26442C6.66014 1.99036 8.62683 0.25 11 0.25C13.3732 0.25 15.3399 1.99036 15.6934 4.26442C16.3438 4.27911 16.918 4.30878 17.4248 4.36868C18.4557 4.49054 19.3044 4.74638 20.0134 5.3282C20.2539 5.52558 20.4744 5.74612 20.6718 5.98663C21.2536 6.69558 21.5095 7.54428 21.6313 8.57525C21.75 9.57943 21.75 10.8487 21.75 12.4509V12.4509V12.4509V12.451V12.4511V12.5V12.5489V12.549V12.5491V12.5491V12.5491C21.75 14.1513 21.75 15.4206 21.6313 16.4248C21.5095 17.4557 21.2536 18.3044 20.6718 19.0134C20.4744 19.2539 20.2539 19.4744 20.0134 19.6718C19.3044 20.2536 18.4557 20.5095 17.4248 20.6313C16.4206 20.75 15.1513 20.75 13.5491 20.75H13.549H13.549H13.549H13.5489H13.5H8.5H8.45109H8.45099H8.45097H8.45095H8.45093C6.84875 20.75 5.57944 20.75 4.57525 20.6313C3.54428 20.5095 2.69558 20.2536 1.98663 19.6718C1.74612 19.4744 1.52558 19.2539 1.3282 19.0134C0.746383 18.3044 0.490545 17.4557 0.36868 16.4248C0.249978 15.4205 0.249988 14.1512 0.25 12.5489V12.5V12.4511C0.249988 10.8488 0.249978 9.57947 0.36868 8.57525C0.490545 7.54428 0.746383 6.69558 1.3282 5.98663C1.52558 5.74612 1.74612 5.52558 1.98663 5.3282C2.69558 4.74638 3.54428 4.49054 4.57525 4.36868C5.08196 4.30878 5.65618 4.27911 6.30661 4.26442ZM1.75 12.5C1.75 14.1621 1.75123 15.3428 1.85831 16.2487C1.96344 17.138 2.16158 17.6644 2.48772 18.0618C2.62277 18.2263 2.77366 18.3772 2.93822 18.5123C3.33563 18.8384 3.86197 19.0366 4.75133 19.1417C5.65724 19.2488 6.83789 19.25 8.5 19.25H13.5C15.1621 19.25 16.3428 19.2488 17.2487 19.1417C18.138 19.0366 18.6644 18.8384 19.0618 18.5123C19.2263 18.3772 19.3772 18.2263 19.5123 18.0618C19.8384 17.6644 20.0366 17.138 20.1417 16.2487C20.2488 15.3428 20.25 14.1621 20.25 12.5C20.25 11.9148 20.2498 11.3892 20.245 10.9144C20.1652 10.9454 20.0774 10.979 19.9821 11.0147C19.4664 11.2081 18.7284 11.4648 17.831 11.7211C17.2096 11.8987 16.5088 12.077 15.75 12.2341V13C15.75 13.4142 15.4142 13.75 15 13.75C14.5858 13.75 14.25 13.4142 14.25 13V12.5007C13.2219 12.6527 12.1246 12.75 11 12.75C9.87538 12.75 8.77809 12.6527 7.75 12.5007V13C7.75 13.4142 7.41421 13.75 7 13.75C6.58579 13.75 6.25 13.4142 6.25 13V12.2341C5.49122 12.077 4.79037 11.8987 4.16896 11.7211C3.27164 11.4648 2.53361 11.2081 2.01791 11.0147C1.92261 10.979 1.83485 10.9454 1.75502 10.9144C1.75015 11.3892 1.75 11.9148 1.75 12.5ZM15.75 10.7004V10C15.75 9.58579 15.4142 9.25 15 9.25C14.5858 9.25 14.25 9.58579 14.25 10V10.9834C13.2224 11.145 12.1226 11.25 11 11.25C9.87744 11.25 8.77764 11.145 7.75 10.9834V10C7.75 9.58579 7.41421 9.25 7 9.25C6.58579 9.25 6.25 9.58579 6.25 10V10.7004C5.64997 10.5688 5.0894 10.4241 4.58104 10.2789C3.72836 10.0352 3.02889 9.79186 2.54459 9.61025C2.30258 9.5195 2.11469 9.44431 1.98869 9.39243C1.9257 9.36649 1.87821 9.34639 1.8472 9.3331L1.81317 9.3184L1.80687 9.31563C1.82049 9.116 1.83738 8.92842 1.85831 8.75133C1.96344 7.86197 2.16158 7.33563 2.48772 6.93822C2.62277 6.77366 2.77366 6.62277 2.93822 6.48772C3.33563 6.16158 3.86197 5.96343 4.75133 5.85831C5.65724 5.75123 6.83789 5.75 8.5 5.75H13.5C15.1621 5.75 16.3428 5.75123 17.2487 5.85831C18.138 5.96343 18.6644 6.16158 19.0618 6.48772C19.2263 6.62277 19.3772 6.77366 19.5123 6.93822C19.8384 7.33563 20.0366 7.86197 20.1417 8.75133C20.1626 8.92842 20.1795 9.116 20.1931 9.31563L20.1868 9.3184L20.1528 9.3331C20.1218 9.34639 20.0743 9.36649 20.0113 9.39243C19.8853 9.44431 19.6974 9.5195 19.4554 9.61025C18.9711 9.79186 18.2716 10.0352 17.419 10.2789C16.9106 10.4241 16.35 10.5688 15.75 10.7004Z"/>
</svg>
