<svg width="20" height="21" viewBox="0 0 20 21" fill="none" xmlns="http://www.w3.org/2000/svg">
<g filter="url(#filter0_d_81_37886)">
<path fill-rule="evenodd" clip-rule="evenodd" d="M9.86432 3.46967C10.1572 3.76256 10.1572 4.23744 9.86432 4.53033L7.14464 7.25L14.6673 7.25C15.0815 7.25 15.4173 7.58579 15.4173 8C15.4173 8.41422 15.0815 8.75 14.6673 8.75L7.14464 8.75L9.86431 11.4697C10.1572 11.7626 10.1572 12.2374 9.86431 12.5303C9.57142 12.8232 9.09655 12.8232 8.80365 12.5303L4.80365 8.53033C4.51076 8.23744 4.51076 7.76256 4.80365 7.46967L8.80366 3.46967C9.09655 3.17678 9.57142 3.17678 9.86432 3.46967Z" fill="white"/>
</g>
<defs>
<filter id="filter0_d_81_37886" x="-2" y="0" width="24" height="24" filterUnits="userSpaceOnUse" color-interpolation-filters="sRGB">
<feFlood flood-opacity="0" result="BackgroundImageFix"/>
<feColorMatrix in="SourceAlpha" type="matrix" values="0 0 0 0 0 0 0 0 0 0 0 0 0 0 0 0 0 0 127 0" result="hardAlpha"/>
<feOffset dy="4"/>
<feGaussianBlur stdDeviation="2"/>
<feComposite in2="hardAlpha" operator="out"/>
<feColorMatrix type="matrix" values="0 0 0 0 0 0 0 0 0 0 0 0 0 0 0 0 0 0 0.25 0"/>
<feBlend mode="normal" in2="BackgroundImageFix" result="effect1_dropShadow_81_37886"/>
<feBlend mode="normal" in="SourceGraphic" in2="effect1_dropShadow_81_37886" result="shape"/>
</filter>
</defs>
</svg>
