<svg width="20" height="22" viewBox="0 0 20 22"  xmlns="http://www.w3.org/2000/svg">
<path fill-rule="evenodd" clip-rule="evenodd" d="M6.75 1C6.75 0.585786 6.41421 0.25 6 0.25C5.58579 0.25 5.25 0.585786 5.25 1V2.27315C5.06292 2.28069 4.88649 2.29068 4.71986 2.30392C4.02597 2.35906 3.43809 2.47407 2.89913 2.73985C1.96133 3.20233 1.20233 3.96133 0.739854 4.89913C0.474067 5.43809 0.35906 6.02597 0.303921 6.71986C0.24999 7.39854 0.249995 8.23977 0.25 9.30128V9.33333V13V13.0564C0.249984 14.8942 0.249971 16.3498 0.403135 17.489C0.560763 18.6614 0.89288 19.6104 1.64124 20.3588C2.38961 21.1071 3.33856 21.4392 4.51098 21.5969C5.65018 21.75 7.1058 21.75 8.94354 21.75H8.94359H9H11H11.0564H11.0565C12.8942 21.75 14.3498 21.75 15.489 21.5969C16.6614 21.4392 17.6104 21.1071 18.3588 20.3588C19.1071 19.6104 19.4392 18.6614 19.5969 17.489C19.75 16.3498 19.75 14.8942 19.75 13.0565V13.0564V13V11V10.9436V10.9435C19.75 9.1058 19.75 7.65018 19.5969 6.51098C19.4392 5.33855 19.1071 4.38961 18.3588 3.64124C17.6104 2.89288 16.6614 2.56076 15.489 2.40313C15.2561 2.37182 15.0099 2.34691 14.75 2.32709V1C14.75 0.585786 14.4142 0.25 14 0.25C13.5858 0.25 13.25 0.585786 13.25 1V2.26272C12.588 2.24999 11.8586 2.24999 11.0564 2.25L11 2.25H7.33333L7.30128 2.25C7.11051 2.25 6.92687 2.25 6.75 2.25031V1ZM13.25 4V3.76309C12.5973 3.75032 11.854 3.75 11 3.75H7.33333C7.12812 3.75 6.934 3.75002 6.75 3.75037V4C6.75 4.41421 6.41421 4.75 6 4.75C5.58579 4.75 5.25 4.41421 5.25 4V3.7744C5.10443 3.78083 4.96779 3.78895 4.83868 3.79921C4.23478 3.84719 3.86008 3.93844 3.56256 4.08516C2.92091 4.40159 2.40159 4.92091 2.08516 5.56256C1.93844 5.86008 1.8472 6.23478 1.79921 6.83868C1.75055 7.45098 1.75 8.23265 1.75 9.33333V13C1.75 14.9068 1.75159 16.2615 1.88976 17.2892C2.02502 18.2952 2.27869 18.8749 2.7019 19.2981C3.12511 19.7213 3.70476 19.975 4.71085 20.1102C5.73851 20.2484 7.09318 20.25 9 20.25H11C12.9068 20.25 14.2615 20.2484 15.2892 20.1102C16.2952 19.975 16.8749 19.7213 17.2981 19.2981C17.7213 18.8749 17.975 18.2952 18.1102 17.2892C18.2484 16.2615 18.25 14.9068 18.25 13V11C18.25 9.09318 18.2484 7.73851 18.1102 6.71085C17.975 5.70476 17.7213 5.12511 17.2981 4.7019C16.8749 4.27869 16.2952 4.02502 15.2892 3.88976C15.1188 3.86685 14.9394 3.8477 14.75 3.83168V4C14.75 4.41421 14.4142 4.75 14 4.75C13.5858 4.75 13.25 4.41421 13.25 4ZM5 7.25C4.58579 7.25 4.25 7.58579 4.25 8C4.25 8.41421 4.58579 8.75 5 8.75H15C15.4142 8.75 15.75 8.41421 15.75 8C15.75 7.58579 15.4142 7.25 15 7.25H5Z" />
</svg>
