<svg width="22" height="18" viewBox="0 0 22 18" fill="none" xmlns="http://www.w3.org/2000/svg">
<path fill-rule="evenodd" clip-rule="evenodd" d="M9 0.250002L8.94358 0.250002L8.94356 0.250002C7.10581 0.249987 5.65019 0.249974 4.51098 0.403137C3.33856 0.560765 2.38961 0.892882 1.64124 1.64125C0.89288 2.38961 0.560763 3.33856 0.403135 4.51098C0.249972 5.65019 0.249984 7.10581 0.249999 8.94355L0.249999 8.94359L0.249999 9L0.249999 9.05642L0.249999 9.05646C0.249984 10.8942 0.249972 12.3498 0.403135 13.489C0.560763 14.6614 0.89288 15.6104 1.64124 16.3588C2.38961 17.1071 3.33856 17.4392 4.51098 17.5969C5.65019 17.75 7.10583 17.75 8.94359 17.75L9 17.75L9.05641 17.75L9.05646 17.75C10.8942 17.75 12.3498 17.75 13.489 17.5969C14.6614 17.4392 15.6104 17.1071 16.3588 16.3588C17.1071 15.6104 17.4392 14.6614 17.5969 13.489C17.6011 13.4577 17.6052 13.4261 17.6092 13.3943C18.1758 13.8183 18.6658 14.1765 19.0818 14.4026C19.5551 14.6598 20.1632 14.875 20.7826 14.5653C21.402 14.2556 21.5947 13.64 21.673 13.107C21.7501 12.5813 21.75 11.8815 21.75 11.0604L21.75 11L21.75 6.99999L21.75 6.93961C21.75 6.11853 21.7501 5.41864 21.673 4.893C21.5947 4.35998 21.402 3.74439 20.7826 3.4347C20.1632 3.12501 19.5551 3.34019 19.0818 3.59743C18.6658 3.82352 18.1758 4.18169 17.6092 4.60572C17.6052 4.5739 17.6011 4.54232 17.5969 4.51098C17.4392 3.33856 17.1071 2.38961 16.3588 1.64125C15.6104 0.892882 14.6614 0.560765 13.489 0.403137C12.3498 0.249974 10.8942 0.249987 9.05644 0.250002L9.05642 0.250002L9 0.250002ZM17.75 8.84883L17.75 8.84182L17.75 8.83347L17.75 8.82512L17.75 8.81677L17.75 8.80841L17.75 8.80004L17.75 8.79168L17.75 8.78331L17.75 8.77493L17.75 8.76655L17.75 8.75817L17.75 8.74978L17.75 8.74139L17.75 8.733L17.75 8.7246L17.75 8.71619L17.75 8.70779L17.75 8.69938L17.75 8.69096L17.75 8.68255L17.75 8.67413L17.75 8.6657L17.75 8.65727L17.75 8.64884L17.75 8.6404L17.75 8.63197L17.75 8.62352L17.75 8.61508L17.75 8.60663L17.75 8.59818L17.75 8.58972L17.75 8.58126L17.75 8.5728L17.75 8.56433L17.75 8.55586L17.75 8.54739L17.75 8.53891L17.75 8.53044L17.75 8.52195L17.75 8.51347L17.75 8.50498L17.75 8.49649L17.75 8.488L17.75 8.4795L17.75 8.471L17.75 8.4625L17.75 8.45399L17.75 8.44548L17.75 8.43697L17.75 8.42846L17.75 8.41994L17.75 8.41142L17.75 8.4029L17.75 8.39437L17.75 8.38584L17.75 8.37731L17.75 8.36878L17.75 8.36025L17.75 8.35171L17.75 8.34317L17.75 8.33462L17.75 8.32608L17.75 8.31753L17.75 8.30898L17.75 8.30043L17.75 8.29188L17.75 8.28332L17.75 8.27476L17.75 8.2662L17.75 8.25763L17.75 8.24907L17.75 8.2405L17.75 8.23193L17.75 8.22336L17.75 8.21479L17.75 8.20621L17.75 8.19763L17.75 8.18905L17.75 8.18047L17.75 8.17189L17.75 8.1633L17.75 8.15471L17.75 8.14612L17.75 8.13753L17.75 8.12894L17.75 8.12035L17.75 8.11175L17.75 8.10315L17.75 8.09455L17.75 8.08595L17.75 8.07735L17.75 8.06875L17.75 8.06014L17.75 8.05153L17.75 8.04293L17.75 8.03432L17.75 8.02571L17.75 8.01709L17.75 8.00848L17.75 7.99986L17.75 7.99125L17.75 7.98263L17.75 7.97401L17.75 7.96539L17.75 7.95677L17.75 7.94815L17.75 7.93953L17.75 7.9309L17.75 7.92228L17.75 7.91365L17.75 7.90503L17.75 7.8964L17.75 7.88777L17.75 7.87914L17.75 7.87051L17.75 7.86188L17.75 7.85325L17.75 7.84461L17.75 7.83598L17.75 7.82735L17.75 7.81871L17.75 7.81008L17.75 7.80144L17.75 7.7928L17.75 7.78417L17.75 7.77553L17.75 7.76689L17.75 7.75825L17.75 7.74961L17.75 7.74098L17.75 7.73234L17.75 7.7237L17.75 7.71506L17.75 7.70642L17.75 7.69778L17.75 7.68914L17.75 7.68049L17.75 7.67185L17.75 7.66321L17.75 7.65457L17.75 7.64593L17.75 7.63729L17.75 7.62865L17.75 7.62001L17.75 7.61137L17.75 7.60273L17.75 7.59408L17.75 7.58544L17.75 7.5768L17.75 7.56816L17.75 7.55952L17.75 7.55088L17.75 7.54225L17.75 7.53361L17.75 7.52497L17.75 7.51633L17.75 7.50769L17.75 7.49906L17.75 7.49042L17.75 7.48178L17.75 7.47315L17.75 7.46451L17.75 7.45588L17.75 7.44725L17.75 7.43861L17.75 7.42998L17.75 7.42135L17.75 7.41272L17.75 7.40409L17.75 7.39546L17.75 7.38683L17.75 7.3782L17.75 7.36958L17.75 7.36095L17.75 7.35233L17.75 7.34371L17.75 7.33508L17.75 7.32646L17.75 7.31784L17.75 7.30922L17.75 7.30061L17.75 7.29199L17.75 7.28337L17.75 7.27476L17.75 7.26615L17.75 7.25754L17.75 7.24893L17.75 7.24032L17.75 7.23171L17.75 7.22311L17.75 7.2145L17.75 7.2059L17.75 7.1973L17.75 7.1887L17.75 7.1801L17.75 7.1715L17.75 7.16291L17.75 7.15432L17.75 7.14572L17.75 7.13713L17.75 7.12855L17.75 7.11996L17.75 7.11138L17.75 7.10279L17.75 7.09421L17.75 7.08564L17.75 7.07706L17.75 7.06848L17.75 7.05991L17.75 7.05134L17.75 7.04277L17.75 7.03421L17.75 7.02564L17.75 7.01708L17.75 7.00852L17.75 6.99996C17.75 6.74167 17.7507 6.59613 17.7603 6.48769C17.7646 6.43923 17.7696 6.41311 17.7728 6.39999C17.7744 6.3938 17.7754 6.39062 17.7758 6.38956L17.7764 6.3882L17.7771 6.38693C17.7778 6.38599 17.7797 6.38321 17.7837 6.37828C17.7922 6.36782 17.8101 6.34811 17.8463 6.31561C17.9273 6.24286 18.0433 6.15498 18.25 6C18.9685 5.46106 19.4399 5.11002 19.798 4.91537C19.9675 4.82328 20.0616 4.79413 20.1071 4.78583C20.1277 4.82716 20.1608 4.91996 20.1888 5.11077C20.248 5.51408 20.25 6.10178 20.25 6.99999L20.25 11C20.25 11.8982 20.248 12.4859 20.1888 12.8892C20.1608 13.08 20.1277 13.1728 20.1071 13.2141C20.0616 13.2058 19.9675 13.1767 19.798 13.0846C19.4399 12.89 18.9686 12.5389 18.25 12C18.0434 11.845 17.9273 11.7572 17.8463 11.6844C17.8101 11.6519 17.7922 11.6322 17.7837 11.6217C17.7817 11.6193 17.7803 11.6175 17.7792 11.616C17.7781 11.6145 17.7775 11.6136 17.7771 11.6131L17.7764 11.6118L17.7758 11.6104C17.7754 11.6093 17.7743 11.6061 17.7728 11.6C17.7696 11.5869 17.7646 11.5608 17.7603 11.5125C17.7507 11.4043 17.75 11.2591 17.75 11.0012L17.75 10.9954L17.75 10.9896L17.75 10.9838L17.75 10.978L17.75 10.9722L17.75 10.9664L17.75 10.9606L17.75 10.9547L17.75 10.9489L17.75 10.943L17.75 10.9371L17.75 10.9312L17.75 10.9253L17.75 10.9193L17.75 10.9134L17.75 10.9075L17.75 10.9015L17.75 10.8955L17.75 10.8895L17.75 10.8835L17.75 10.8775L17.75 10.8715L17.75 10.8654L17.75 10.8594L17.75 10.8533L17.75 10.8472L17.75 10.8411L17.75 10.835L17.75 10.8289L17.75 10.8228L17.75 10.8166L17.75 10.8105L17.75 10.8043L17.75 10.7981L17.75 10.792L17.75 10.7857L17.75 10.7795L17.75 10.7733L17.75 10.7671L17.75 10.7608L17.75 10.7546L17.75 10.7483L17.75 10.742L17.75 10.7357L17.75 10.7294L17.75 10.7231L17.75 10.7167L17.75 10.7104L17.75 10.704L17.75 10.6977L17.75 10.6913L17.75 10.6849L17.75 10.6785L17.75 10.6721L17.75 10.6656L17.75 10.6592L17.75 10.6527L17.75 10.6463L17.75 10.6398L17.75 10.6333L17.75 10.6268L17.75 10.6203L17.75 10.6138L17.75 10.6073L17.75 10.6007L17.75 10.5942L17.75 10.5876L17.75 10.581L17.75 10.5744L17.75 10.5678L17.75 10.5612L17.75 10.5546L17.75 10.548L17.75 10.5413L17.75 10.5347L17.75 10.528L17.75 10.5214L17.75 10.5147L17.75 10.508L17.75 10.5013L17.75 10.4945L17.75 10.4878L17.75 10.4811L17.75 10.4743L17.75 10.4676L17.75 10.4608L17.75 10.454L17.75 10.4472L17.75 10.4404L17.75 10.4336L17.75 10.4268L17.75 10.4199L17.75 10.4131L17.75 10.4062L17.75 10.3994L17.75 10.3925L17.75 10.3856L17.75 10.3787L17.75 10.3718L17.75 10.3649L17.75 10.358L17.75 10.351L17.75 10.3441L17.75 10.3371L17.75 10.3301L17.75 10.3232L17.75 10.3162L17.75 10.3092L17.75 10.3022L17.75 10.2952L17.75 10.2881L17.75 10.2811L17.75 10.274L17.75 10.267L17.75 10.2599L17.75 10.2528L17.75 10.2458L17.75 10.2387L17.75 10.2315L17.75 10.2244L17.75 10.2173L17.75 10.2102L17.75 10.203L17.75 10.1959L17.75 10.1887L17.75 10.1815L17.75 10.1744L17.75 10.1672L17.75 10.16L17.75 10.1528L17.75 10.1455L17.75 10.1383L17.75 10.1311L17.75 10.1238L17.75 10.1166L17.75 10.1093L17.75 10.102L17.75 10.0947L17.75 10.0874L17.75 10.0801L17.75 10.0728L17.75 10.0655L17.75 10.0582L17.75 10.0508L17.75 10.0435L17.75 10.0361L17.75 10.0288L17.75 10.0214L17.75 10.014L17.75 10.0066L17.75 9.99924L17.75 9.99183L17.75 9.98441L17.75 9.97699L17.75 9.96955L17.75 9.96211L17.75 9.95466L17.75 9.9472L17.75 9.93973L17.75 9.93226L17.75 9.92477L17.75 9.91728L17.75 9.90978L17.75 9.90227L17.75 9.89475L17.75 9.88723L17.75 9.8797L17.75 9.87215L17.75 9.8646L17.75 9.85704L17.75 9.84948L17.75 9.8419L17.75 9.83432L17.75 9.82673L17.75 9.81913L17.75 9.81153L17.75 9.80391L17.75 9.79629L17.75 9.78866L17.75 9.78102L17.75 9.77338L17.75 9.76572L17.75 9.75806L17.75 9.7504L17.75 9.74272L17.75 9.73503L17.75 9.72734L17.75 9.71964L17.75 9.71194L17.75 9.70422L17.75 9.6965L17.75 9.68877L17.75 9.68104L17.75 9.67329L17.75 9.66554L17.75 9.65778L17.75 9.65002L17.75 9.64224L17.75 9.63446L17.75 9.62668L17.75 9.61888L17.75 9.61108L17.75 9.60327L17.75 9.59546L17.75 9.58763L17.75 9.5798L17.75 9.57197L17.75 9.56412L17.75 9.55627L17.75 9.54841L17.75 9.54055L17.75 9.53268L17.75 9.5248L17.75 9.51691L17.75 9.50902L17.75 9.50112L17.75 9.49322L17.75 9.48531L17.75 9.47739L17.75 9.46946L17.75 9.46153L17.75 9.45359L17.75 9.44565L17.75 9.4377L17.75 9.42974L17.75 9.42178L17.75 9.41381L17.75 9.40583L17.75 9.39785L17.75 9.38986L17.75 9.38186L17.75 9.37386L17.75 9.36585L17.75 9.35784L17.75 9.34982L17.75 9.34179L17.75 9.33376L17.75 9.32572L17.75 9.31767L17.75 9.30962L17.75 9.30157L17.75 9.2935L17.75 9.28544L17.75 9.27736L17.75 9.26928L17.75 9.2612L17.75 9.2531L17.75 9.24501L17.75 9.2369L17.75 9.22879L17.75 9.22068L17.75 9.21256L17.75 9.20443L17.75 9.1963L17.75 9.18817L17.75 9.18002L17.75 9.17188L17.75 9.16372L17.75 9.15556L17.75 9.15122M16.25 9C16.25 10.9068 16.2484 12.2615 16.1102 13.2892C15.975 14.2952 15.7213 14.8749 15.2981 15.2981C14.8749 15.7213 14.2952 15.975 13.2892 16.1102C12.2615 16.2484 10.9068 16.25 9 16.25C7.09318 16.25 5.73851 16.2484 4.71085 16.1102C3.70476 15.975 3.12511 15.7213 2.7019 15.2981C2.27869 14.8749 2.02502 14.2952 1.88976 13.2892C1.75159 12.2615 1.75 10.9068 1.75 9C1.75 7.09318 1.75159 5.73852 1.88976 4.71085C2.02502 3.70476 2.27869 3.12512 2.7019 2.70191C3.12511 2.2787 3.70476 2.02503 4.71085 1.88976C5.73851 1.7516 7.09318 1.75 9 1.75C10.9068 1.75 12.2615 1.7516 13.2892 1.88976C14.2952 2.02503 14.8749 2.2787 15.2981 2.70191C15.7213 3.12512 15.975 3.70476 16.1102 4.71085C16.2484 5.73852 16.25 7.09318 16.25 9ZM20.1422 4.78417C20.1418 4.78483 20.137 4.78511 20.129 4.783C20.1387 4.78245 20.1427 4.7835 20.1422 4.78417ZM20.0962 4.76658C20.0897 4.76146 20.087 4.75743 20.0873 4.7567C20.0876 4.75596 20.0908 4.75852 20.0962 4.76658ZM20.0873 13.2433C20.087 13.2425 20.0897 13.2385 20.0962 13.2334C20.0908 13.2414 20.0876 13.244 20.0873 13.2433ZM20.129 13.217C20.137 13.2148 20.1418 13.2151 20.1422 13.2158C20.1427 13.2165 20.1387 13.2175 20.129 13.217Z" fill="black"/>
</svg>
