<svg width="23" height="18" viewBox="0 0 23 18" fill="none" xmlns="http://www.w3.org/2000/svg">
<path d="M1.71379 17.9944C1.27292 17.9944 0.887166 17.8291 0.556519 17.4984C0.225871 17.1678 0.0605469 16.782 0.0605469 16.3412V2.0131C0.0605469 1.57224 0.225871 1.18648 0.556519 0.855835C0.887166 0.525187 1.27292 0.359863 1.71379 0.359863H16.0419C16.4827 0.359863 16.8685 0.525187 17.1991 0.855835C17.5298 1.18648 17.6951 1.57224 17.6951 2.0131V7.93721L22.1037 3.52857V14.8257L17.6951 10.4171V16.3412C17.6951 16.782 17.5298 17.1678 17.1991 17.4984C16.8685 17.8291 16.4827 17.9944 16.0419 17.9944H1.71379Z" fill="white"/>
</svg>
