<svg width="21" height="18" viewBox="0 0 21 18" fill="none" xmlns="http://www.w3.org/2000/svg">
<path fill-rule="evenodd" clip-rule="evenodd" d="M7.6294 0.0878912H7.57334H7.57334C6.17637 0.0878703 5.05037 0.0878535 4.16478 0.206918C3.24533 0.330535 2.47117 0.594991 1.85632 1.20984C1.24147 1.82469 0.977019 2.59885 0.853402 3.51829C0.734338 4.40389 0.734355 5.52989 0.734376 6.92686L0.734376 6.98291V9.02588L0.734376 9.08194C0.734355 10.4789 0.734338 11.6049 0.853402 12.4905C0.977019 13.41 1.24147 14.1841 1.85632 14.799C2.47117 15.4138 3.24533 15.6783 4.16478 15.8019C5.05036 15.9209 6.17635 15.9209 7.5733 15.9209H7.57335H7.6294H13.8722C14.8668 15.9209 15.2431 15.9256 15.5995 16.0097C15.9558 16.0938 16.2945 16.2579 17.1841 16.7028L19.5446 17.883C19.7821 18.0017 20.0641 17.989 20.29 17.8495C20.5158 17.7099 20.6533 17.4633 20.6533 17.1978V6.98291V6.92686C20.6533 5.52989 20.6534 4.40389 20.5343 3.51829C20.4107 2.59885 20.1462 1.82469 19.5314 1.20984C18.9165 0.594991 18.1424 0.330535 17.2229 0.206918C16.3373 0.0878533 15.2113 0.0878703 13.8144 0.0878912H13.7583H7.6294ZM5.58643 4.17383C5.16332 4.17383 4.82032 4.51683 4.82032 4.93994C4.82032 5.36306 5.16332 5.70606 5.58643 5.70606H13.7583C14.1814 5.70606 14.5244 5.36306 14.5244 4.93994C14.5244 4.51683 14.1814 4.17383 13.7583 4.17383H5.58643ZM4.82032 9.02588C4.82032 8.60277 5.16332 8.25977 5.58643 8.25977H9.67237C10.0955 8.25977 10.4385 8.60277 10.4385 9.02588C10.4385 9.449 10.0955 9.792 9.67237 9.792H5.58643C5.16332 9.792 4.82032 9.449 4.82032 9.02588Z" fill="white"/>
</svg>
