<svg width="13" height="13" viewBox="0 0 13 13" fill="none" xmlns="http://www.w3.org/2000/svg">
<path fill-rule="evenodd" clip-rule="evenodd" d="M0.73156 0.661492C0.993431 0.39962 1.41801 0.39962 1.67988 0.661492L6.57023 5.55184L11.4606 0.661492C11.7225 0.39962 12.147 0.39962 12.4089 0.661492C12.6708 0.923363 12.6708 1.34794 12.4089 1.60981L7.51855 6.50016L12.4089 11.3905C12.6708 11.6524 12.6708 12.077 12.4089 12.3388C12.147 12.6007 11.7225 12.6007 11.4606 12.3388L6.57023 7.44848L1.67988 12.3388C1.41801 12.6007 0.993431 12.6007 0.73156 12.3388C0.469688 12.077 0.469688 11.6524 0.73156 11.3905L5.62191 6.50016L0.73156 1.60981C0.469688 1.34794 0.469688 0.923363 0.73156 0.661492Z" fill="#4D84E7"/>
</svg>
