<svg width="24" height="24" viewBox="0 0 24 24" xmlns="http://www.w3.org/2000/svg">
<path  fill-rule="nonzero" clip-rule="evenodd"  d="M17.5 2.25H17.4617C16.7921 2.24998 16.2334 2.24997 15.781 2.29598C15.3075 2.34415 14.8682 2.44886 14.4722 2.71346C14.1719 2.9141 13.9141 3.17191 13.7135 3.47218C13.4489 3.86818 13.3441 4.30755 13.296 4.78102C13.25 5.23335 13.25 5.79208 13.25 6.46165L13.25 6.5L13.25 6.53835C13.25 7.20792 13.25 7.76665 13.296 8.21898C13.3441 8.69245 13.4489 9.13182 13.7135 9.52782C13.9141 9.82809 14.1719 10.0859 14.4722 10.2865C14.8682 10.5511 15.3075 10.6559 15.781 10.704C16.2334 10.75 16.7921 10.75 17.4617 10.75L17.5 10.75L17.5383 10.75C18.2079 10.75 18.7666 10.75 19.219 10.704C19.6925 10.6559 20.1318 10.5511 20.5278 10.2865C20.8281 10.0859 21.0859 9.82809 21.2865 9.52782C21.5511 9.13182 21.6559 8.69245 21.704 8.21898C21.75 7.76665 21.75 7.20792 21.75 6.53834V6.5V6.46166C21.75 5.79208 21.75 5.23335 21.704 4.78102C21.6559 4.30755 21.5511 3.86818 21.2865 3.47218C21.0859 3.17191 20.8281 2.9141 20.5278 2.71346C20.1318 2.44886 19.6925 2.34415 19.219 2.29598C18.7666 2.24997 18.2079 2.24998 17.5383 2.25H17.5ZM6.5 2.25H6.46166H6.46165C5.79207 2.24998 5.23335 2.24997 4.78102 2.29598C4.30755 2.34415 3.86818 2.44886 3.47218 2.71346C3.17191 2.9141 2.9141 3.17191 2.71346 3.47218C2.44886 3.86818 2.34415 4.30755 2.29598 4.78102C2.24997 5.23335 2.24998 5.79207 2.25 6.46165V6.46166V6.5V6.53835V6.53835C2.24998 7.20793 2.24997 7.76665 2.29598 8.21898C2.34415 8.69245 2.44886 9.13182 2.71346 9.52782C2.9141 9.82809 3.17191 10.0859 3.47218 10.2865C3.86818 10.5511 4.30755 10.6559 4.78102 10.704C5.23335 10.75 5.79208 10.75 6.46166 10.75L6.5 10.75L6.53834 10.75C7.20792 10.75 7.76665 10.75 8.21898 10.704C8.69245 10.6559 9.13182 10.5511 9.52782 10.2865C9.82809 10.0859 10.0859 9.82809 10.2865 9.52782C10.5511 9.13182 10.6559 8.69245 10.704 8.21898C10.75 7.76665 10.75 7.20792 10.75 6.53834L10.75 6.5L10.75 6.46166C10.75 5.79208 10.75 5.23335 10.704 4.78102C10.6559 4.30755 10.5511 3.86818 10.2865 3.47218C10.0859 3.17191 9.82809 2.9141 9.52782 2.71346C9.13182 2.44886 8.69245 2.34415 8.21898 2.29598C7.76665 2.24997 7.20793 2.24998 6.53835 2.25H6.53835H6.5ZM6.46165 13.25L6.5 13.25L6.53835 13.25C7.20793 13.25 7.76665 13.25 8.21898 13.296C8.69245 13.3441 9.13182 13.4489 9.52782 13.7135C9.82809 13.9141 10.0859 14.1719 10.2865 14.4722C10.5511 14.8682 10.6559 15.3075 10.704 15.781C10.75 16.2334 10.75 16.7921 10.75 17.4617L10.75 17.5L10.75 17.5383C10.75 18.2079 10.75 18.7666 10.704 19.219C10.6559 19.6925 10.5511 20.1318 10.2865 20.5278C10.0859 20.8281 9.82809 21.0859 9.52782 21.2865C9.13182 21.5511 8.69245 21.6559 8.21898 21.704C7.76665 21.75 7.20792 21.75 6.53834 21.75H6.5H6.46166C5.79208 21.75 5.23335 21.75 4.78102 21.704C4.30755 21.6559 3.86818 21.5511 3.47218 21.2865C3.17191 21.0859 2.9141 20.8281 2.71346 20.5278C2.44886 20.1318 2.34415 19.6925 2.29598 19.219C2.24997 18.7666 2.24998 18.2079 2.25 17.5383V17.5V17.4617C2.24998 16.7921 2.24997 16.2334 2.29598 15.781C2.34415 15.3075 2.44886 14.8682 2.71346 14.4722C2.9141 14.1719 3.17191 13.9141 3.47218 13.7135C3.86818 13.4489 4.30755 13.3441 4.78102 13.296C5.23335 13.25 5.79208 13.25 6.46165 13.25ZM17.5 13.25L17.4617 13.25H17.4616C16.7921 13.25 16.2333 13.25 15.781 13.296C15.3075 13.3442 14.8682 13.4489 14.4722 13.7135C14.1719 13.9141 13.9141 14.1719 13.7135 14.4722C13.4489 14.8682 13.3442 15.3075 13.296 15.781C13.25 16.2333 13.25 16.7921 13.25 17.4616V17.4617L13.25 17.5L13.25 17.5383V17.5384C13.25 18.2079 13.25 18.7667 13.296 19.219C13.3442 19.6925 13.4489 20.1318 13.7135 20.5278C13.9141 20.8281 14.1719 21.0859 14.4722 21.2865C14.8682 21.5511 15.3075 21.6559 15.781 21.704C16.2334 21.75 16.7921 21.75 17.4617 21.75L17.5 21.75L17.5383 21.75C18.2079 21.75 18.7666 21.75 19.219 21.704C19.6925 21.6559 20.1318 21.5511 20.5278 21.2865C20.8281 21.0859 21.0859 20.8281 21.2865 20.5278C21.5511 20.1318 21.6559 19.6925 21.704 19.219C21.75 18.7666 21.75 18.2079 21.75 17.5383L21.75 17.5L21.75 17.4617C21.75 16.7921 21.75 16.2334 21.704 15.781C21.6559 15.3075 21.5511 14.8682 21.2865 14.4722C21.0859 14.1719 20.8281 13.9141 20.5278 13.7135C20.1318 13.4489 19.6925 13.3442 19.219 13.296C18.7667 13.25 18.2079 13.25 17.5384 13.25H17.5383L17.5 13.25Z" />
</svg>
