<svg width="189" height="189" viewBox="0 0 189 189" fill="none" xmlns="http://www.w3.org/2000/svg">
<path d="M87.5641 22.875V28.375V22.875ZM52.4124 24.0533L51.6795 18.6023L52.4124 24.0533ZM32.4673 32.4673L28.5782 28.5782L28.5782 28.5782L32.4673 32.4673ZM24.0533 52.4124L18.6023 51.6795L24.0533 52.4124ZM22.875 87.5641H28.375H22.875ZM22.875 101.436H28.375H22.875ZM24.0533 136.588L18.6023 137.32L24.0533 136.588ZM32.4673 156.533L36.3563 152.644H36.3563L32.4673 156.533ZM52.4124 164.947L51.6795 170.398H51.6795L52.4124 164.947ZM136.588 164.947L137.32 170.398H137.32L136.588 164.947ZM156.533 156.533L152.644 152.644L152.644 152.644L156.533 156.533ZM164.947 136.588L170.398 137.32L170.398 137.32L164.947 136.588ZM164.947 52.4124L170.398 51.6795L170.398 51.6795L164.947 52.4124ZM156.533 32.4673L152.644 36.3563L152.644 36.3563L156.533 32.4673ZM136.588 24.0533L135.855 29.5042H135.855L136.588 24.0533ZM101.436 22.875V28.375V22.875ZM52.6122 25.5399L51.8794 20.0889L52.6122 25.5399ZM33.5279 33.5279L37.417 37.417L37.417 37.417L33.5279 33.5279ZM136.388 25.5399L137.121 20.0889V20.0889L136.388 25.5399ZM155.472 33.5279L151.583 37.417V37.417L155.472 33.5279ZM163.46 52.6122L158.009 53.3451V53.3451L163.46 52.6122ZM163.46 136.388L158.009 135.655V135.655L163.46 136.388ZM155.472 155.472L159.361 159.361V159.361L155.472 155.472ZM136.388 163.46L135.655 158.009H135.655L136.388 163.46ZM52.6122 163.46L53.3451 158.009H53.3451L52.6122 163.46ZM33.5279 155.472L29.6388 159.361L29.6388 159.361L33.5279 155.472ZM25.5399 136.388L20.0889 137.121L20.0889 137.121L25.5399 136.388ZM25.5399 52.6122L20.0889 51.8794L20.0889 51.8794L25.5399 52.6122ZM62.5457 126.6L59.2425 130.997L59.2426 130.997L62.5457 126.6ZM63.5958 126.45L59.1982 123.147L63.5958 126.45ZM62.3965 125.55L57.9989 122.246L62.3965 125.55ZM126.602 125.55L130.999 122.246L130.999 122.246L126.602 125.55ZM126.452 126.6L129.756 130.997L129.756 130.997L126.452 126.6ZM125.402 126.45L121.005 129.754L121.005 129.754L125.402 126.45ZM87.5641 28.375H87.625V17.375H87.5641V28.375ZM53.1452 29.5042C61.4576 28.3866 72.3763 28.375 87.5641 28.375V17.375C72.6849 17.375 60.8947 17.3634 51.6795 18.6023L53.1452 29.5042ZM36.3563 36.3563C40.0129 32.6998 44.9577 30.605 53.1452 29.5042L51.6795 18.6023C42.2727 19.867 34.6194 22.537 28.5782 28.5782L36.3563 36.3563ZM29.5042 53.1452C30.605 44.9577 32.6998 40.0129 36.3563 36.3563L28.5782 28.5782C22.537 34.6194 19.867 42.2727 18.6023 51.6795L29.5042 53.1452ZM28.375 87.5641C28.375 72.3763 28.3866 61.4577 29.5042 53.1452L18.6023 51.6795C17.3634 60.8947 17.375 72.6849 17.375 87.5641H28.375ZM28.375 87.625V87.5641H17.375V87.625H28.375ZM28.375 101.375V87.625H17.375V101.375H28.375ZM28.375 101.436V101.375H17.375V101.436H28.375ZM29.5042 135.855C28.3866 127.542 28.375 116.624 28.375 101.436H17.375C17.375 116.315 17.3634 128.105 18.6023 137.32L29.5042 135.855ZM36.3563 152.644C32.6998 148.987 30.605 144.042 29.5042 135.855L18.6023 137.32C19.867 146.727 22.5369 154.381 28.5782 160.422L36.3563 152.644ZM53.1452 159.496C44.9577 158.395 40.0129 156.3 36.3563 152.644L28.5782 160.422C34.6194 166.463 42.2727 169.133 51.6795 170.398L53.1452 159.496ZM87.5644 160.625C72.3765 160.625 61.4577 160.613 53.1452 159.496L51.6795 170.398C60.8948 171.637 72.685 171.625 87.5644 171.625V160.625ZM87.625 160.625H87.5644V171.625H87.625V160.625ZM101.375 160.625H87.625V171.625H101.375V160.625ZM101.436 160.625H101.375V171.625H101.436V160.625ZM135.855 159.496C127.542 160.613 116.624 160.625 101.436 160.625V171.625C116.315 171.625 128.105 171.637 137.32 170.398L135.855 159.496ZM152.644 152.644C148.987 156.3 144.042 158.395 135.855 159.496L137.32 170.398C146.727 169.133 154.381 166.463 160.422 160.422L152.644 152.644ZM159.496 135.855C158.395 144.042 156.3 148.987 152.644 152.644L160.422 160.422C166.463 154.381 169.133 146.727 170.398 137.32L159.496 135.855ZM160.625 101.436C160.625 116.624 160.613 127.542 159.496 135.855L170.398 137.32C171.637 128.105 171.625 116.315 171.625 101.436H160.625ZM160.625 101.375V101.436H171.625V101.375H160.625ZM160.625 87.625V101.375H171.625V87.625H160.625ZM160.625 87.5644V87.625H171.625V87.5644H160.625ZM159.496 53.1452C160.613 61.4577 160.625 72.3764 160.625 87.5644H171.625C171.625 72.685 171.637 60.8948 170.398 51.6795L159.496 53.1452ZM152.644 36.3563C156.3 40.0129 158.395 44.9577 159.496 53.1452L170.398 51.6795C169.133 42.2727 166.463 34.6194 160.422 28.5782L152.644 36.3563ZM135.855 29.5042C144.042 30.605 148.987 32.6998 152.644 36.3563L160.422 28.5782C154.381 22.537 146.727 19.867 137.32 18.6023L135.855 29.5042ZM101.436 28.375C116.624 28.375 127.542 28.3866 135.855 29.5042L137.32 18.6023C128.105 17.3634 116.315 17.375 101.436 17.375V28.375ZM101.375 28.375H101.436V17.375H101.375V28.375ZM87.625 28.375H101.375V17.375H87.625V28.375ZM51.8794 20.0889C42.6383 21.3314 35.3546 23.923 29.6388 29.6388L37.417 37.417C40.7486 34.0854 45.3244 32.0692 53.3451 30.9908L51.8794 20.0889ZM87.625 18.875C72.6746 18.875 60.9836 18.8649 51.8794 20.0889L53.3451 30.9908C61.5458 29.8883 72.3631 29.875 87.625 29.875V18.875ZM101.375 18.875H87.625V29.875H101.375V18.875ZM137.121 20.0889C128.016 18.8649 116.325 18.875 101.375 18.875V29.875C116.637 29.875 127.454 29.8883 135.655 30.9908L137.121 20.0889ZM159.361 29.6388C153.645 23.923 146.362 21.3314 137.121 20.0889L135.655 30.9908C143.676 32.0692 148.251 34.0854 151.583 37.417L159.361 29.6388ZM168.911 51.8794C167.669 42.6383 165.077 35.3546 159.361 29.6388L151.583 37.417C154.915 40.7486 156.931 45.3244 158.009 53.3451L168.911 51.8794ZM170.125 87.625C170.125 72.6746 170.135 60.9836 168.911 51.8794L158.009 53.3451C159.112 61.5458 159.125 72.3631 159.125 87.625H170.125ZM170.125 101.375V87.625H159.125V101.375H170.125ZM168.911 137.121C170.135 128.016 170.125 116.325 170.125 101.375H159.125C159.125 116.637 159.112 127.454 158.009 135.655L168.911 137.121ZM159.361 159.361C165.077 153.645 167.669 146.362 168.911 137.121L158.009 135.655C156.931 143.676 154.915 148.251 151.583 151.583L159.361 159.361ZM137.121 168.911C146.362 167.669 153.645 165.077 159.361 159.361L151.583 151.583C148.251 154.915 143.676 156.931 135.655 158.009L137.121 168.911ZM101.375 170.125C116.325 170.125 128.016 170.135 137.121 168.911L135.655 158.009C127.454 159.112 116.637 159.125 101.375 159.125V170.125ZM87.625 170.125H101.375V159.125H87.625V170.125ZM51.8794 168.911C60.9836 170.135 72.6746 170.125 87.625 170.125V159.125C72.3631 159.125 61.5458 159.112 53.3451 158.009L51.8794 168.911ZM29.6388 159.361C35.3546 165.077 42.6383 167.669 51.8794 168.911L53.3451 158.009C45.3244 156.931 40.7486 154.915 37.417 151.583L29.6388 159.361ZM20.0889 137.121C21.3314 146.362 23.923 153.645 29.6388 159.361L37.417 151.583C34.0854 148.251 32.0692 143.676 30.9908 135.655L20.0889 137.121ZM18.875 101.375C18.875 116.325 18.8649 128.016 20.0889 137.121L30.9908 135.655C29.8883 127.454 29.875 116.637 29.875 101.375H18.875ZM18.875 87.625V101.375H29.875V87.625H18.875ZM20.0889 51.8794C18.8649 60.9836 18.875 72.6746 18.875 87.625H29.875C29.875 72.3631 29.8883 61.5458 30.9908 53.3451L20.0889 51.8794ZM29.6388 29.6388C23.923 35.3546 21.3314 42.6383 20.0889 51.8794L30.9908 53.3451C32.0692 45.3244 34.0854 40.7486 37.417 37.417L29.6388 29.6388ZM59.2426 130.997C62.0025 133.07 65.9204 132.514 67.9934 129.754L59.1982 123.147C60.7737 121.05 63.7513 120.627 65.8489 122.202L59.2426 130.997ZM57.9989 122.246C55.9258 125.006 56.4827 128.924 59.2425 130.997L65.8489 122.202C67.9464 123.778 68.3696 126.755 66.7941 128.853L57.9989 122.246ZM94.499 104C79.5681 104 66.3121 111.179 57.9989 122.246L66.7941 128.853C73.1193 120.432 83.1742 115 94.499 115V104ZM130.999 122.246C122.686 111.179 109.43 104 94.499 104V115C105.824 115 115.879 120.432 122.204 128.853L130.999 122.246ZM129.756 130.997C132.515 128.924 133.072 125.006 130.999 122.246L122.204 128.853C120.628 126.755 121.052 123.778 123.149 122.202L129.756 130.997ZM121.005 129.754C123.078 132.514 126.996 133.07 129.756 130.997L123.149 122.202C125.247 120.627 128.224 121.05 129.8 123.147L121.005 129.754ZM94.499 116.5C105.332 116.5 114.951 121.694 121.005 129.754L129.8 123.147C121.758 112.44 108.938 105.5 94.499 105.5V116.5ZM67.9934 129.754C74.0473 121.694 83.6657 116.5 94.499 116.5V105.5C80.06 105.5 67.2405 112.44 59.1982 123.147L67.9934 129.754ZM70.875 92.125C78.2618 92.125 84.25 86.1368 84.25 78.75H73.25C73.25 80.0617 72.1867 81.125 70.875 81.125V92.125ZM57.5 78.75C57.5 86.1368 63.4882 92.125 70.875 92.125V81.125C69.5633 81.125 68.5 80.0617 68.5 78.75H57.5ZM70.875 65.375C63.4882 65.375 57.5 71.3632 57.5 78.75H68.5C68.5 77.4383 69.5633 76.375 70.875 76.375V65.375ZM84.25 78.75C84.25 71.3632 78.2618 65.375 70.875 65.375V76.375C72.1867 76.375 73.25 77.4383 73.25 78.75H84.25ZM120.5 78.75C120.5 80.0617 119.437 81.125 118.125 81.125V92.125C125.512 92.125 131.5 86.1368 131.5 78.75H120.5ZM118.125 76.375C119.437 76.375 120.5 77.4383 120.5 78.75H131.5C131.5 71.3632 125.512 65.375 118.125 65.375V76.375ZM115.75 78.75C115.75 77.4383 116.813 76.375 118.125 76.375V65.375C110.738 65.375 104.75 71.3632 104.75 78.75H115.75ZM118.125 81.125C116.813 81.125 115.75 80.0617 115.75 78.75H104.75C104.75 86.1368 110.738 92.125 118.125 92.125V81.125Z" fill="url(#paint0_linear_468_36798)"/>
<defs>
<linearGradient id="paint0_linear_468_36798" x1="39.6759" y1="23.1697" x2="286.089" y2="265.752" gradientUnits="userSpaceOnUse">
<stop stop-color="#085DD7"/>
<stop offset="1" stop-color="#085DD7" stop-opacity="0"/>
</linearGradient>
</defs>
</svg>
