<svg width="57" height="23" viewBox="0 0 57 23" fill="none" xmlns="http://www.w3.org/2000/svg">
<path fill-rule="evenodd" clip-rule="evenodd" d="M28.5998 0.208008C25.315 0.208008 21.8652 0.723872 18.3761 1.81443C13.2296 3.42299 7.99856 6.28137 3.08081 10.5783L3.04289 10.6114L3.04286 10.6115C2.48945 11.0949 2.01648 11.5082 1.67773 11.9C1.31136 12.3238 1.05014 12.7789 0.982537 13.3581C0.914006 13.9451 1.07559 14.4599 1.34409 14.9674C1.59514 15.4419 1.97768 15.9774 2.4302 16.6109L2.43022 16.6109L2.45907 16.6513L4.55367 19.5837L4.58275 19.6245C5.07579 20.3147 5.48809 20.892 5.87787 21.3099C6.29002 21.7518 6.74565 22.093 7.34889 22.2128C7.95212 22.3325 8.50355 22.1912 9.05324 21.9403C9.57308 21.703 10.1746 21.327 10.8939 20.8774L10.9364 20.8508L16.0681 17.6435L16.1908 17.567C16.894 17.1285 17.4513 16.7811 17.791 16.23C18.1308 15.6789 18.191 15.025 18.2669 14.1998L18.2802 14.0558L19.3 3.10086C22.4855 2.1538 25.6202 1.70801 28.5998 1.70801C31.5795 1.70801 34.7142 2.1538 37.8997 3.10087L38.9195 14.0558L38.9328 14.1998C39.0087 15.025 39.0688 15.6789 39.4086 16.23C39.7484 16.7811 40.3056 17.1285 41.0089 17.567L41.1316 17.6435L46.2633 20.8509L46.3058 20.8774C47.0251 21.327 47.6266 21.703 48.1464 21.9403C48.6961 22.1912 49.2476 22.3326 49.8508 22.2128C50.454 22.0931 50.9096 21.7518 51.3218 21.3099C51.7116 20.8921 52.1239 20.3148 52.6169 19.6245L52.646 19.5838L54.7406 16.6515L54.7694 16.6111C55.2219 15.9777 55.6045 15.4421 55.8556 14.9676C56.1241 14.4601 56.2857 13.9453 56.2171 13.3583C56.1495 12.7791 55.8883 12.324 55.522 11.9002C55.1832 11.5084 54.7102 11.0951 54.1568 10.6116L54.1189 10.5785C49.2011 6.28144 43.9701 3.42302 38.8236 1.81444C35.3344 0.723872 31.8847 0.208008 28.5998 0.208008Z" fill="white"/>
</svg>
