<svg width="22" height="19" viewBox="0 0 22 19" fill="none" xmlns="http://www.w3.org/2000/svg">
<path fill-rule="evenodd" clip-rule="evenodd" d="M5 0.249939L4.8842 0.249914C4.06624 0.249644 3.50809 0.24946 3.02943 0.377717C1.73533 0.724469 0.72453 1.73527 0.377778 3.02937C0.249521 3.50803 0.249705 4.06618 0.249975 4.88414L0.25 4.99994V11.9999V12.0548C0.249979 13.4224 0.249962 14.5247 0.366523 15.3917C0.487539 16.2918 0.746433 17.0497 1.34835 17.6516C1.95027 18.2535 2.70814 18.5124 3.60825 18.6334C4.47522 18.75 5.57754 18.75 6.94513 18.7499H7H15H15.0549C16.4225 18.75 17.5248 18.75 18.3918 18.6334C19.2919 18.5124 20.0497 18.2535 20.6517 17.6516C21.2536 17.0497 21.5125 16.2918 21.6335 15.3917C21.75 14.5247 21.75 13.4224 21.75 12.0548V11.9999V9.99994V9.94507C21.75 8.57748 21.75 7.47516 21.6335 6.60819C21.5125 5.70808 21.2536 4.9502 20.6517 4.34829C20.0497 3.74637 19.2919 3.48748 18.3918 3.36646C17.5248 3.2499 16.4225 3.24992 15.0549 3.24994L15 3.24994H14.1213C13.2137 3.24994 12.9048 3.24326 12.6259 3.16375C12.4598 3.1164 12.2997 3.05009 12.1487 2.96612C11.8953 2.8251 11.6721 2.61138 11.0303 1.96961L10.9591 1.89836L10.9591 1.89836C10.4161 1.35501 10.04 0.978575 9.58055 0.722978C9.329 0.583023 9.06217 0.472498 8.78533 0.393586C8.27975 0.249474 7.74758 0.249655 6.97942 0.249916L6.87868 0.249939H5ZM3.41766 1.82661C3.67974 1.75638 4.02174 1.74994 5 1.74994H6.87868C7.78628 1.74994 8.09521 1.75662 8.37414 1.83613C8.54024 1.88347 8.70034 1.94979 8.85127 2.03376C9.10472 2.17477 9.3279 2.3885 9.96967 3.03027L10.0409 3.10151L10.0409 3.10153C10.5839 3.64487 10.96 4.0213 11.4194 4.2769C11.671 4.41685 11.9378 4.52738 12.2147 4.60629C12.7203 4.7504 13.2524 4.75022 14.0206 4.74996L14.1213 4.74994H15C16.4354 4.74994 17.4365 4.75153 18.1919 4.85309C18.9257 4.95174 19.3142 5.13219 19.591 5.40895C19.8678 5.68571 20.0482 6.07428 20.1469 6.80806C20.2484 7.56341 20.25 8.56452 20.25 9.99994V11.9999C20.25 13.4354 20.2484 14.4365 20.1469 15.1918C20.0482 15.9256 19.8678 16.3142 19.591 16.5909C19.3142 16.8677 18.9257 17.0481 18.1919 17.1468C17.4365 17.2483 16.4354 17.2499 15 17.2499H7C5.56458 17.2499 4.56347 17.2483 3.80812 17.1468C3.07434 17.0481 2.68577 16.8677 2.40901 16.5909C2.13225 16.3142 1.9518 15.9256 1.85315 15.1918C1.75159 14.4365 1.75 13.4354 1.75 11.9999V4.99994C1.75 4.02168 1.75644 3.67968 1.82667 3.4176C2.03472 2.64114 2.6412 2.03466 3.41766 1.82661ZM11.75 8.00006C11.75 7.58585 11.4142 7.25006 11 7.25006C10.5858 7.25006 10.25 7.58585 10.25 8.00006V10.2501H8C7.58579 10.2501 7.25 10.5858 7.25 11.0001C7.25 11.4143 7.58579 11.7501 8 11.7501H10.25V14.0001C10.25 14.4143 10.5858 14.7501 11 14.7501C11.4142 14.7501 11.75 14.4143 11.75 14.0001V11.7501H14C14.4142 11.7501 14.75 11.4143 14.75 11.0001C14.75 10.5858 14.4142 10.2501 14 10.2501H11.75V8.00006Z" fill="#2196F3"/>
</svg>
