<svg width="15" height="15" viewBox="0 0 15 15" fill="none" xmlns="http://www.w3.org/2000/svg">
<path fill-rule="evenodd" clip-rule="evenodd" d="M8.75553 2.4056C8.75553 2.64417 8.94893 2.83756 9.1875 2.83756H11.55L9.46066 4.92695C8.94304 4.73445 8.19032 4.73445 7.00998 4.73445H5.85807C4.22903 4.73445 3.4145 4.73445 2.90842 5.24053C2.40234 5.74661 2.40234 6.56113 2.40234 8.19017V9.34208C2.40234 10.9711 2.40234 11.7857 2.90842 12.2917C3.4145 12.7978 4.22902 12.7978 5.85807 12.7978H7.00998C8.63903 12.7978 9.45355 12.7978 9.95963 12.2917C10.4657 11.7857 10.4657 10.9711 10.4657 9.34208V8.19017C10.4657 6.78529 10.4657 5.98619 10.1411 5.46828L12.1609 3.44846V5.811C12.1609 6.04957 12.3543 6.24297 12.5929 6.24297C12.8315 6.24297 13.0249 6.04957 13.0249 5.811V2.4056C13.0249 2.16703 12.8315 1.97363 12.5929 1.97363H9.1875C8.94893 1.97363 8.75553 2.16703 8.75553 2.4056ZM10.1411 5.46828C10.0893 5.38564 10.0293 5.31016 9.95963 5.24053C9.82023 5.10113 9.65743 5.00013 9.46066 4.92695L6.04421 8.3434C5.87552 8.51209 5.87552 8.78559 6.04421 8.95429C6.2129 9.12298 6.48641 9.12298 6.6551 8.95429L10.1411 5.46828Z" fill="white"/>
</svg>
