<svg width="22" height="22" viewBox="0 0 22 22"  xmlns="http://www.w3.org/2000/svg">
<path fill-rule="evenodd" clip-rule="evenodd" d="M10.7479 1.59615C5.69351 1.59615 1.59615 5.69351 1.59615 10.7479C1.59615 15.8022 5.69351 19.8996 10.7479 19.8996C15.8022 19.8996 19.8996 15.8022 19.8996 10.7479C19.8996 5.69351 15.8022 1.59615 10.7479 1.59615ZM0 10.7479C0 4.81198 4.81198 0 10.7479 0C16.6837 0 21.4957 4.81198 21.4957 10.7479C21.4957 16.6837 16.6837 21.4957 10.7479 21.4957C4.81198 21.4957 0 16.6837 0 10.7479ZM11.8534 15.1697C11.8534 15.7802 11.3584 16.2752 10.7479 16.2752C10.1373 16.2752 9.64233 15.7802 9.64233 15.1697C9.64233 14.5591 10.1373 14.0641 10.7479 14.0641C11.3584 14.0641 11.8534 14.5591 11.8534 15.1697ZM9.33491 8.53667C9.33491 7.7563 9.96752 7.12368 10.7479 7.12368C11.5283 7.12368 12.1609 7.7563 12.1609 8.53666V8.67079C12.1609 9.08111 11.9979 9.47462 11.7077 9.76476L10.1836 11.2889C9.8719 11.6006 9.8719 12.1059 10.1836 12.4176C10.4952 12.7293 11.0005 12.7293 11.3122 12.4176L12.8364 10.8934C13.4259 10.3039 13.757 9.50443 13.757 8.67079V8.53666C13.757 6.87476 12.4098 5.52753 10.7479 5.52753C9.08599 5.52753 7.73875 6.87477 7.73875 8.53667V9.08943C7.73875 9.5302 8.09606 9.88751 8.53683 9.88751C8.9776 9.88751 9.33491 9.5302 9.33491 9.08943V8.53667Z"/>
</svg>
