<svg width="28" height="28" viewBox="0 0 28 28" fill="none" xmlns="http://www.w3.org/2000/svg">
<path fill-rule="evenodd" clip-rule="evenodd" d="M25.6673 14C25.6673 20.4434 20.444 25.6667 14.0007 25.6667C7.55733 25.6667 2.33398 20.4434 2.33398 14C2.33398 7.55672 7.55733 2.33337 14.0007 2.33337C20.444 2.33337 25.6673 7.55672 25.6673 14ZM14.0007 11.8334C14.5529 11.8334 15.0007 12.2811 15.0007 12.8334V18.6667C15.0007 19.219 14.5529 19.6667 14.0007 19.6667C13.4484 19.6667 13.0007 19.219 13.0007 18.6667V12.8334C13.0007 12.2811 13.4484 11.8334 14.0007 11.8334ZM14.0007 10.5C14.645 10.5 15.1673 9.97771 15.1673 9.33337C15.1673 8.68904 14.645 8.16671 14.0007 8.16671C13.3563 8.16671 12.834 8.68904 12.834 9.33337C12.834 9.97771 13.3563 10.5 14.0007 10.5Z" fill="#E9380D"/>
</svg>
