<svg width="53" height="53" viewBox="0 0 53 53" fill="none" xmlns="http://www.w3.org/2000/svg">
<path d="M16.6093 11.5206C15.1471 12.9828 13.9872 14.7187 13.1958 16.6292C12.4045 18.5397 11.9972 20.5874 11.9972 22.6553C11.9972 24.7232 12.4045 26.7708 13.1958 28.6813C13.9872 30.5918 15.1471 32.3277 16.6093 33.79L21.9539 28.4453C21.1936 27.685 20.5904 26.7823 20.1789 25.7888C19.7674 24.7954 19.5556 23.7306 19.5556 22.6553C19.5556 21.58 19.7674 20.5152 20.1789 19.5217C20.5904 18.5283 21.1936 17.6256 21.9539 16.8652L16.6093 11.5206Z" fill="url(#paint0_linear_401_35340)"/>
<path d="M38.8788 11.5208C37.4166 10.0585 35.6807 8.89863 33.7702 8.10728C31.8597 7.31593 29.812 6.90862 27.7441 6.90862C25.6762 6.90862 23.6286 7.31593 21.7181 8.10728C19.8076 8.89863 18.0717 10.0585 16.6095 11.5208L21.9541 16.8654C22.7145 16.105 23.6171 15.5019 24.6106 15.0904C25.6041 14.6789 26.6688 14.4671 27.7441 14.4671C28.8194 14.4671 29.8842 14.6789 30.8777 15.0904C31.8711 15.5019 32.7738 16.105 33.5342 16.8654L38.8788 11.5208Z" fill="url(#paint1_linear_401_35340)"/>
<path d="M35.9845 41.5844C37.4467 40.1222 38.6066 38.3862 39.3979 36.4758C40.1893 34.5653 40.5966 32.5176 40.5966 30.4497C40.5966 28.3818 40.1893 26.3342 39.3979 24.4237C38.6066 22.5132 37.4467 20.7773 35.9845 19.315L30.6398 24.6597C31.4002 25.42 32.0033 26.3227 32.4148 27.3162C32.8263 28.3096 33.0381 29.3744 33.0381 30.4497C33.0381 31.525 32.8263 32.5898 32.4148 33.5833C32.0033 34.5767 31.4002 35.4794 30.6398 36.2397L35.9845 41.5844Z" fill="url(#paint2_linear_401_35340)"/>
<path d="M13.7149 41.5842C15.1772 43.0464 16.9131 44.2064 18.8236 44.9977C20.7341 45.7891 22.7817 46.1964 24.8496 46.1964C26.9175 46.1964 28.9652 45.7891 30.8757 44.9977C32.7861 44.2064 34.5221 43.0464 35.9843 41.5842L30.6396 36.2396C29.8793 36.9999 28.9766 37.6031 27.9832 38.0146C26.9897 38.4261 25.9249 38.6379 24.8496 38.6379C23.7743 38.6379 22.7095 38.4261 21.7161 38.0146C20.7226 37.6031 19.8199 36.9999 19.0596 36.2396L13.7149 41.5842Z" fill="url(#paint3_linear_401_35340)"/>
<defs>
<linearGradient id="paint0_linear_401_35340" x1="7.90717" y1="31.3574" x2="19.5579" y2="19.7067" gradientUnits="userSpaceOnUse">
<stop stop-color="#085DD7"/>
<stop offset="1" stop-color="#4D93F8"/>
</linearGradient>
<linearGradient id="paint1_linear_401_35340" x1="10.3399" y1="40.0597" x2="33.6414" y2="16.7582" gradientUnits="userSpaceOnUse">
<stop stop-color="#085DD7"/>
<stop offset="1" stop-color="#4D93F8"/>
</linearGradient>
<linearGradient id="paint2_linear_401_35340" x1="44.6866" y1="21.7476" x2="33.0358" y2="33.3983" gradientUnits="userSpaceOnUse">
<stop stop-color="#085DD7"/>
<stop offset="1" stop-color="#4D93F8"/>
</linearGradient>
<linearGradient id="paint3_linear_401_35340" x1="42.2539" y1="13.0453" x2="18.9524" y2="36.3468" gradientUnits="userSpaceOnUse">
<stop stop-color="#085DD7"/>
<stop offset="1" stop-color="#4D93F8"/>
</linearGradient>
</defs>
</svg>
