<svg width="19" height="25" viewBox="0 0 19 25" fill="none" xmlns="http://www.w3.org/2000/svg">
<path d="M9.71109 0.289551C8.36196 0.289551 7.06809 0.825489 6.11411 1.77947C5.16014 2.73344 4.6242 4.02731 4.6242 5.37644V12.4981C4.6242 13.8472 5.16014 15.1411 6.11411 16.0951C7.06809 17.049 8.36196 17.585 9.71109 17.585C11.0602 17.585 12.3541 17.049 13.3081 16.0951C14.262 15.1411 14.798 13.8472 14.798 12.4981V5.37644C14.798 4.02731 14.262 2.73344 13.3081 1.77947C12.3541 0.825489 11.0602 0.289551 9.71109 0.289551ZM1.57207 11.4807C1.84189 11.4807 2.10066 11.5879 2.29146 11.7787C2.48226 11.9695 2.58944 12.2283 2.58944 12.4981C2.58944 14.3869 3.33976 16.1983 4.67532 17.5338C6.01089 18.8694 7.82231 19.6197 9.71109 19.6197C11.5999 19.6197 13.4113 18.8694 14.7469 17.5338C16.0824 16.1983 16.8327 14.3869 16.8327 12.4981C16.8327 12.2283 16.9399 11.9695 17.1307 11.7787C17.3215 11.5879 17.5803 11.4807 17.8501 11.4807C18.1199 11.4807 18.3787 11.5879 18.5695 11.7787C18.7603 11.9695 18.8675 12.2283 18.8675 12.4981C18.8679 14.7507 18.038 16.9243 16.5365 18.6035C15.0349 20.2826 12.9671 21.3493 10.7285 21.5995V23.6892C10.7285 23.9591 10.6213 24.2178 10.4305 24.4086C10.2397 24.5994 9.98091 24.7066 9.71109 24.7066C9.44126 24.7066 9.18249 24.5994 8.99169 24.4086C8.8009 24.2178 8.69371 23.9591 8.69371 23.6892V21.5995C6.45509 21.3493 4.38728 20.2826 2.88572 18.6035C1.38417 16.9243 0.554255 14.7507 0.554688 12.4981C0.554688 12.2283 0.661876 11.9695 0.852671 11.7787C1.04347 11.5879 1.30224 11.4807 1.57207 11.4807Z" fill="white"/>
</svg>
