<svg width="20" height="20" viewBox="0 0 20 20" fill="none" xmlns="http://www.w3.org/2000/svg">
<path fill-rule="evenodd" clip-rule="evenodd" d="M8.33333 2.41663C6.9066 2.41663 5.75 3.57322 5.75 4.99996V13.3333C5.75 15.6805 7.65279 17.5833 10 17.5833C12.3472 17.5833 14.25 15.6805 14.25 13.3333V4.16663C14.25 3.75241 14.5858 3.41663 15 3.41663C15.4142 3.41663 15.75 3.75241 15.75 4.16663V13.3333C15.75 16.5089 13.1756 19.0833 10 19.0833C6.82436 19.0833 4.25 16.5089 4.25 13.3333V4.99996C4.25 2.7448 6.07817 0.916626 8.33333 0.916626C10.5885 0.916626 12.4167 2.7448 12.4167 4.99996V13.3333C12.4167 14.668 11.3347 15.75 10 15.75C8.66531 15.75 7.58333 14.668 7.58333 13.3333V4.99996C7.58333 4.58575 7.91912 4.24996 8.33333 4.24996C8.74755 4.24996 9.08333 4.58575 9.08333 4.99996V13.3333C9.08333 13.8396 9.49374 14.25 10 14.25C10.5063 14.25 10.9167 13.8396 10.9167 13.3333V4.99996C10.9167 3.57322 9.76007 2.41663 8.33333 2.41663Z" fill="#4579EE"/>
</svg>
