<svg width="16" height="20" viewBox="0 0 16 20" fill="none" xmlns="http://www.w3.org/2000/svg">
<path fill-rule="evenodd" clip-rule="evenodd" d="M7.9998 0.354004C5.43398 0.354004 3.35397 2.43401 3.35397 4.99984C3.35397 7.56566 5.43398 9.64567 7.9998 9.64567C10.5656 9.64567 12.6456 7.56566 12.6456 4.99984C12.6456 2.43401 10.5656 0.354004 7.9998 0.354004ZM4.99937 12.3541L4.94646 12.3541C4.48103 12.354 4.18499 12.354 3.92705 12.3868C2.07785 12.6223 0.621819 14.0784 0.386307 15.9276C0.353456 16.1855 0.353484 16.4816 0.353529 16.947L0.353533 16.9999L0.353524 17.0406C0.353454 17.2587 0.3534 17.4268 0.372507 17.5768C0.508856 18.6474 1.35182 19.4904 2.42241 19.6267C2.57244 19.6459 2.74053 19.6458 2.95866 19.6457L2.99937 19.6457H12.9994L13.0401 19.6457C13.2582 19.6458 13.4263 19.6459 13.5763 19.6267C14.6469 19.4904 15.4899 18.6474 15.6262 17.5768C15.6453 17.4268 15.6453 17.2587 15.6452 17.0406V17.0406L15.6452 16.9999L15.6452 16.947V16.9469C15.6452 16.4815 15.6453 16.1855 15.6124 15.9276C15.3769 14.0784 13.9209 12.6223 12.0717 12.3868C11.8137 12.354 11.5177 12.354 11.0523 12.3541L10.9994 12.3541H4.99937Z" fill="#4D92FF"/>
</svg>
