<svg width="21" height="20" viewBox="0 0 21 20" fill="none" xmlns="http://www.w3.org/2000/svg">
<path fill-rule="evenodd" clip-rule="evenodd" d="M2.25 10C2.25 5.44365 5.94365 1.75 10.5 1.75C15.0563 1.75 18.75 5.44365 18.75 10C18.75 14.5563 15.0563 18.25 10.5 18.25C5.94365 18.25 2.25 14.5563 2.25 10ZM10.5 0.25C5.11522 0.25 0.75 4.61522 0.75 10C0.75 15.3848 5.11522 19.75 10.5 19.75C15.8848 19.75 20.25 15.3848 20.25 10C20.25 4.61522 15.8848 0.25 10.5 0.25ZM11.25 6V5.25H9.74997V6V9.25H6.49997C6.08576 9.25 5.74997 9.58579 5.74997 10C5.74997 10.4142 6.08576 10.75 6.49997 10.75H9.74997V14V14.75H11.25V14V10.75H14.5C14.9142 10.75 15.25 10.4142 15.25 10C15.25 9.58579 14.9142 9.25 14.5 9.25H11.25V6Z"/>
</svg>
