<svg width="33" height="33" viewBox="0 0 33 33" fill="none" xmlns="http://www.w3.org/2000/svg">
<path fill-rule="evenodd" clip-rule="evenodd" d="M28.0841 3.19139C28.3908 3.4981 28.4979 3.95176 28.3607 4.36324L20.3604 28.3632C20.2139 28.8026 19.8172 29.1105 19.3552 29.1434C18.8932 29.1762 18.4569 28.9275 18.2498 28.5132L13.6273 19.2681L19.4177 13.4777C19.8649 13.0305 19.8649 12.3055 19.4177 11.8583C18.9705 11.4111 18.2454 11.4111 17.7982 11.8583L12.0081 17.6484L2.76193 13.0253C2.34767 12.8182 2.09897 12.3819 2.1318 11.9199C2.16464 11.4579 2.47254 11.0612 2.91193 10.9148L26.9123 2.91475C27.3238 2.77759 27.7774 2.88469 28.0841 3.19139Z" fill="#4D84E7"/>
</svg>
