<svg width="24" height="24" viewBox="0 0 24 24"  xmlns="http://www.w3.org/2000/svg">
<path fill-rule="evenodd" clip-rule="evenodd" d="M8 1.25061H7.96421C7.05997 1.2506 6.33069 1.25059 5.7424 1.30391C5.13605 1.35887 4.60625 1.47517 4.125 1.75302C3.55493 2.08215 3.08154 2.55554 2.75241 3.12561C2.47456 3.60686 2.35826 4.13666 2.3033 4.74301C2.24999 5.33129 2.24999 6.06054 2.25 6.96476V6.96482V7.00061L2.25 17.0006V17.0364C2.24999 17.9406 2.24998 18.6699 2.3033 19.2582C2.35826 19.8646 2.47455 20.3944 2.7524 20.8756C3.08154 21.4457 3.55493 21.9191 4.125 22.2482C4.60625 22.5261 5.13605 22.6424 5.7424 22.6973C6.33069 22.7506 7.05995 22.7506 7.96418 22.7506H8H8.03582C8.94005 22.7506 9.66932 22.7506 10.2576 22.6973C10.8639 22.6424 11.3937 22.5261 11.875 22.2482C12.4451 21.9191 12.9185 21.4457 13.2476 20.8756C13.5254 20.3944 13.6417 19.8646 13.6967 19.2582C13.75 18.6699 13.75 17.9406 13.75 17.0364V17.0006V16.0006C13.75 15.5864 13.4142 15.2506 13 15.2506C12.5858 15.2506 12.25 15.5864 12.25 16.0006V17.0006C12.25 17.949 12.2493 18.6102 12.2028 19.1228C12.1573 19.6251 12.0726 19.9107 11.9486 20.1256C11.7511 20.4677 11.467 20.7517 11.125 20.9492C10.9101 21.0732 10.6245 21.1579 10.1222 21.2034C9.60959 21.2499 8.94842 21.2506 8 21.2506C7.05158 21.2506 6.39041 21.2499 5.87779 21.2034C5.37549 21.1579 5.0899 21.0732 4.875 20.9492C4.53296 20.7517 4.24892 20.4677 4.05144 20.1256C3.92737 19.9107 3.84271 19.6251 3.79718 19.1228C3.75072 18.6102 3.75 17.949 3.75 17.0006L3.75 7.00061C3.75 6.05219 3.75072 5.39102 3.79718 4.8784C3.84271 4.3761 3.92737 4.09051 4.05145 3.87561C4.24892 3.53357 4.53296 3.24953 4.875 3.05205C5.0899 2.92798 5.37549 2.84332 5.87779 2.79779C6.39041 2.75133 7.05158 2.75061 8 2.75061C8.94842 2.75061 9.60959 2.75133 10.1222 2.79779C10.6245 2.84332 10.9101 2.92798 11.125 3.05205C11.467 3.24953 11.7511 3.53357 11.9486 3.87561C12.0726 4.09051 12.1573 4.3761 12.2028 4.8784C12.2493 5.39102 12.25 6.05219 12.25 7.00061V8.00061C12.25 8.41482 12.5858 8.75061 13 8.75061C13.4142 8.75061 13.75 8.41482 13.75 8.00061V7.00061V6.96484C13.75 6.06059 13.75 5.33131 13.6967 4.74301C13.6417 4.13666 13.5254 3.60686 13.2476 3.12561C12.9185 2.55554 12.4451 2.08215 11.875 1.75302C11.3938 1.47517 10.8639 1.35887 10.2576 1.30391C9.66931 1.25059 8.94003 1.2506 8.03579 1.25061H8ZM17.5303 7.46979C17.2374 7.1769 16.7626 7.1769 16.4697 7.46979C16.1768 7.76269 16.1768 8.23756 16.4697 8.53045L19.1893 11.2501L8 11.2501C7.58579 11.2501 7.25 11.5859 7.25 12.0001C7.25 12.4143 7.58579 12.7501 8 12.7501L19.1893 12.7501L16.4697 15.4698C16.1768 15.7627 16.1768 16.2376 16.4697 16.5305C16.7626 16.8233 17.2374 16.8233 17.5303 16.5305L21.5303 12.5305C21.8232 12.2376 21.8232 11.7627 21.5303 11.4698L17.5303 7.46979Z" />
</svg>
