<svg width="24" height="24" viewBox="0 0 24 24" fill="none" xmlns="http://www.w3.org/2000/svg">
<path fill-rule="evenodd" clip-rule="evenodd" d="M10 3.25H9.94358H9.94356C8.10581 3.24999 6.65019 3.24997 5.51098 3.40314C4.33856 3.56076 3.38961 3.89288 2.64124 4.64125C1.89288 5.38961 1.56076 6.33856 1.40314 7.51098C1.24997 8.65019 1.24999 10.1058 1.25 11.9436V11.9436V12V12.0564V12.0565C1.24999 13.8942 1.24997 15.3498 1.40314 16.489C1.56077 17.6614 1.89288 18.6104 2.64125 19.3588C3.38961 20.1071 4.33856 20.4392 5.51098 20.5969C6.6502 20.75 8.10583 20.75 9.94359 20.75H10H10.0564H10.0565C11.8942 20.75 13.3498 20.75 14.489 20.5969C15.6614 20.4392 16.6104 20.1071 17.3588 19.3588C18.1071 18.6104 18.4392 17.6614 18.5969 16.489C18.6011 16.4577 18.6052 16.4261 18.6092 16.3943C19.1758 16.8183 19.6658 17.1765 20.0818 17.4025C20.5551 17.6598 21.1632 17.8749 21.7826 17.5653C22.402 17.2556 22.5947 16.64 22.673 16.107C22.7501 15.5813 22.75 14.8815 22.75 14.0604L22.75 14L22.75 9.99999L22.75 9.93961C22.75 9.11852 22.7501 8.41863 22.673 7.89299C22.5947 7.35998 22.402 6.74439 21.7826 6.4347C21.1632 6.125 20.5551 6.34018 20.0818 6.59743C19.6658 6.82352 19.1758 7.18169 18.6092 7.60571C18.6052 7.57389 18.6011 7.54232 18.5969 7.51098C18.4392 6.33855 18.1071 5.38961 17.3588 4.64124C16.6104 3.89288 15.6614 3.56076 14.489 3.40313C13.3498 3.24997 11.8942 3.24998 10.0564 3.25H10.0564H10ZM18.75 11.8488V11.8418V11.8335V11.8251V11.8168V11.8084V11.8V11.7917V11.7833V11.7749V11.7665V11.7582V11.7498V11.7414V11.733V11.7246V11.7162V11.7078V11.6994V11.691V11.6825V11.6741V11.6657V11.6573V11.6488V11.6404V11.632V11.6235V11.6151V11.6066V11.5982V11.5897V11.5813V11.5728V11.5643V11.5559V11.5474V11.5389V11.5304V11.522V11.5135V11.505V11.4965V11.488V11.4795V11.471V11.4625L18.75 11.454V11.4455V11.437V11.4285V11.4199V11.4114V11.4029V11.3944V11.3858V11.3773V11.3688V11.3602V11.3517V11.3432V11.3346V11.3261V11.3175V11.309V11.3004V11.2919V11.2833V11.2748V11.2662V11.2576V11.2491V11.2405V11.2319V11.2234V11.2148V11.2062V11.1976V11.189V11.1805V11.1719V11.1633V11.1547V11.1461V11.1375V11.1289V11.1203V11.1117V11.1031V11.0946V11.0859V11.0773V11.0687V11.0601V11.0515V11.0429V11.0343V11.0257V11.0171V11.0085V10.9999V10.9912V10.9826V10.974V10.9654V10.9568V10.9481V10.9395V10.9309V10.9223V10.9136V10.905V10.8964V10.8878V10.8791V10.8705V10.8619V10.8532V10.8446V10.836V10.8273V10.8187V10.8101V10.8014V10.7928V10.7842V10.7755V10.7669V10.7583V10.7496V10.741V10.7323V10.7237V10.7151V10.7064V10.6978V10.6891V10.6805V10.6719V10.6632V10.6546V10.6459V10.6373V10.6286V10.62V10.6114V10.6027V10.5941V10.5854V10.5768V10.5682V10.5595V10.5509V10.5422V10.5336V10.525V10.5163V10.5077V10.4991V10.4904V10.4818V10.4731V10.4645V10.4559V10.4472V10.4386V10.43V10.4213V10.4127V10.4041V10.3955V10.3868V10.3782V10.3696V10.3609V10.3523V10.3437V10.3351V10.3265V10.3178V10.3092V10.3006V10.292V10.2834V10.2748V10.2661V10.2575V10.2489V10.2403V10.2317V10.2231V10.2145V10.2059V10.1973V10.1887V10.1801V10.1715V10.1629V10.1543V10.1457V10.1371V10.1285V10.12V10.1114V10.1028V10.0942V10.0856V10.0771V10.0685V10.0599V10.0513V10.0428V10.0342V10.0256V10.0171V10.0085V9.99996C18.75 9.74167 18.7507 9.59613 18.7603 9.48768C18.7646 9.43923 18.7696 9.4131 18.7728 9.39998C18.7744 9.3938 18.7754 9.39062 18.7758 9.38956L18.7764 9.38819L18.7771 9.38693C18.7778 9.38599 18.7797 9.3832 18.7837 9.37827C18.7922 9.36782 18.8101 9.34811 18.8463 9.3156C18.9273 9.24285 19.0433 9.15498 19.25 9C19.9685 8.46106 20.4399 8.11001 20.798 7.91537C20.9675 7.82327 21.0616 7.79412 21.1071 7.78583C21.1277 7.82715 21.1608 7.91995 21.1888 8.11077C21.248 8.51408 21.25 9.10178 21.25 9.99999L21.25 14C21.25 14.8982 21.248 15.4859 21.1889 15.8892C21.1609 16.08 21.1277 16.1728 21.1071 16.2141C21.0616 16.2058 20.9675 16.1767 20.798 16.0846C20.4399 15.89 19.9686 15.5389 19.25 15C19.0434 14.845 18.9273 14.7571 18.8463 14.6844C18.8101 14.6519 18.7922 14.6322 18.7837 14.6217C18.7817 14.6193 18.7803 14.6175 18.7792 14.616C18.7781 14.6145 18.7775 14.6136 18.7772 14.6131L18.7764 14.6118L18.7758 14.6104C18.7754 14.6093 18.7743 14.6061 18.7728 14.6C18.7696 14.5869 18.7646 14.5608 18.7603 14.5125C18.7507 14.4043 18.75 14.2591 18.75 14.0012V13.9954V13.9896V13.9838V13.978V13.9722V13.9664V13.9606V13.9547V13.9489V13.943V13.9371V13.9312V13.9253V13.9193V13.9134V13.9074V13.9015V13.8955V13.8895V13.8835V13.8775V13.8715V13.8654V13.8594V13.8533V13.8472V13.8411V13.835V13.8289V13.8228V13.8166V13.8105V13.8043V13.7981V13.7919V13.7857V13.7795V13.7733V13.7671V13.7608V13.7546V13.7483V13.742V13.7357V13.7294V13.7231V13.7167V13.7104V13.704V13.6977V13.6913V13.6849V13.6785V13.6721V13.6656V13.6592V13.6527V13.6463V13.6398V13.6333V13.6268V13.6203V13.6138V13.6073V13.6007V13.5942V13.5876V13.581V13.5744V13.5678V13.5612V13.5546V13.548V13.5413V13.5347V13.528V13.5214V13.5147V13.508V13.5013V13.4945V13.4878V13.4811V13.4743V13.4676V13.4608V13.454V13.4472V13.4404V13.4336V13.4268V13.4199V13.4131V13.4062V13.3994V13.3925V13.3856V13.3787V13.3718V13.3649V13.358V13.351V13.3441V13.3371V13.3301V13.3232V13.3162V13.3092V13.3022V13.2952V13.2881V13.2811V13.274V13.267V13.2599V13.2528V13.2457V13.2387V13.2315V13.2244V13.2173V13.2102V13.203V13.1959V13.1887V13.1815V13.1744V13.1672V13.16V13.1527V13.1455V13.1383V13.1311V13.1238V13.1166V13.1093V13.102V13.0947V13.0874V13.0801V13.0728V13.0655V13.0582V13.0508V13.0435V13.0361V13.0288V13.0214V13.014V13.0066V12.9992V12.9918V12.9844V12.977V12.9696V12.9621V12.9547V12.9472V12.9397V12.9323V12.9248V12.9173V12.9098V12.9023V12.8948V12.8872V12.8797V12.8721V12.8646V12.857V12.8495V12.8419V12.8343V12.8267V12.8191V12.8115V12.8039V12.7963V12.7887V12.781V12.7734V12.7657V12.7581V12.7504V12.7427V12.735V12.7273V12.7196V12.7119V12.7042V12.6965V12.6888V12.681V12.6733V12.6655V12.6578V12.65V12.6422V12.6345V12.6267V12.6189V12.6111V12.6033V12.5955V12.5876V12.5798V12.572V12.5641V12.5563V12.5484V12.5405V12.5327V12.5248V12.5169V12.509V12.5011V12.4932V12.4853V12.4774V12.4695V12.4615V12.4536V12.4456V12.4377V12.4297V12.4218V12.4138V12.4058V12.3978V12.3899V12.3819V12.3739V12.3658V12.3578V12.3498V12.3418V12.3338V12.3257V12.3177V12.3096V12.3016V12.2935V12.2854V12.2774V12.2693V12.2612V12.2531V12.245V12.2369V12.2288V12.2207V12.2126V12.2044V12.1963V12.1882V12.18V12.1719V12.1637V12.1556V12.1512M17.25 12C17.25 13.9068 17.2484 15.2615 17.1102 16.2892C16.975 17.2952 16.7213 17.8749 16.2981 18.2981C15.8749 18.7213 15.2952 18.975 14.2892 19.1102C13.2615 19.2484 11.9068 19.25 10 19.25C8.09318 19.25 6.73852 19.2484 5.71085 19.1102C4.70476 18.975 4.12512 18.7213 3.70191 18.2981C3.2787 17.8749 3.02503 17.2952 2.88976 16.2892C2.7516 15.2615 2.75 13.9068 2.75 12C2.75 10.0932 2.75159 8.73852 2.88976 7.71085C3.02502 6.70476 3.27869 6.12512 3.7019 5.70191C4.12511 5.2787 4.70476 5.02503 5.71085 4.88976C6.73851 4.75159 8.09318 4.75 10 4.75C11.9068 4.75 13.2615 4.75159 14.2892 4.88976C15.2952 5.02502 15.8749 5.27869 16.2981 5.7019C16.7213 6.12511 16.975 6.70476 17.1102 7.71085C17.2484 8.73851 17.25 10.0932 17.25 12ZM21.1422 7.78416C21.1418 7.78483 21.137 7.78511 21.129 7.783C21.1387 7.78245 21.1427 7.7835 21.1422 7.78416ZM21.0962 7.76658C21.0897 7.76146 21.087 7.75743 21.0873 7.75669C21.0876 7.75596 21.0908 7.75852 21.0962 7.76658ZM21.0873 16.2433C21.087 16.2425 21.0897 16.2385 21.0962 16.2334C21.0908 16.2414 21.0876 16.244 21.0873 16.2433ZM21.129 16.217C21.137 16.2148 21.1418 16.2151 21.1422 16.2158C21.1427 16.2165 21.1387 16.2175 21.129 16.217Z" fill="white"/>
</svg>
